<svg xmlns="http://www.w3.org/2000/svg" xmlns:xlink="http://www.w3.org/1999/xlink" viewBox="0 0 993 755.3"><defs><style>.cls-1{fill:#fff;}.cls-2{fill:#ffe1ef;}.cls-3{clip-path:url(#clip-path);}.cls-4{fill:#c59bd2;}.cls-27,.cls-5{fill:#fbaea8;}.cls-6{fill:#9b72aa;}.cls-7{fill:#232047;}.cls-13,.cls-8{fill:#e26889;}.cls-27,.cls-29,.cls-8,.cls-9{fill-rule:evenodd;}.cls-11,.cls-9{fill:#2f295a;}.cls-10{fill:#53285a;}.cls-12{fill:#a584b2;}.cls-14{fill:#854cc8;}.cls-15{fill:#707777;}.cls-16{fill:#899191;}.cls-17{fill:#5763a0;}.cls-18{fill:#6c7ad3;}.cls-19,.cls-29{fill:#5e2f68;}.cls-20{fill:#f8be87;}.cls-21{fill:#fcd7b9;}.cls-22{fill:#f8526d;opacity:0.46;}.cls-23{fill:#bbb8bc;}.cls-24{fill:#3e2e72;}.cls-25{fill:url(#linear-gradient);}.cls-26{fill:#7c58ef;}.cls-28{fill:#7653cc;}.cls-30{fill:#f87582;}.cls-31{fill:#3a4266;}.cls-32{fill:#2b3249;}.cls-33{fill:#11afde;}.cls-34{fill:#333642;}.cls-35{fill:#1f73ff;}.cls-36{fill:#1b1d23;}</style><clipPath id="clip-path"><path class="cls-1" d="M541.29,100.6v-7a20.07,20.07,0,0,1-10.54-3L532.4,86a18.3,18.3,0,0,0,9.92,3c4.89,0,8.2-2.83,8.2-6.75s-2.69-6.14-7.79-8.2c-7-2.76-11.36-5.93-11.36-11.92,0-5.72,4.06-10.06,10.4-11.09V44H546v6.68a18.26,18.26,0,0,1,9,2.42l-1.72,4.54a16.73,16.73,0,0,0-8.68-2.34c-5.3,0-7.3,3.17-7.3,5.92,0,3.59,2.55,5.38,8.54,7.86,7.1,2.89,10.68,6.47,10.68,12.6,0,5.45-3.79,10.54-10.88,11.71v7.17Z"/></clipPath><linearGradient id="linear-gradient" x1="201.05" y1="423.88" x2="299.79" y2="423.88" gradientUnits="userSpaceOnUse"><stop offset="0" stop-color="#7c58ef"/><stop offset="1" stop-color="#da7de4"/></linearGradient></defs><g id="Layer_2" data-name="Layer 2"><g id="DESIGN"><path class="cls-2" d="M752.39,350.73c-125.79-12.46,5.67-65.42,58.33-110.38s-42.92-85.71-143.84-97.71S677,127.35,672,71.38,563.68-1,494.59.05V.26C425.51-.61,323.52,16,318.52,71.61c-5,56,106,59.26,5.08,71.26s-196.49,52.75-143.83,97.71S363.88,338.49,238.1,351,78.82,468.88,122.72,511.68s122.91,41.71,108.4,68S148,620.33,172,677.31s83.16,29.35,83.16,29.35l240.74,6.69v-.26l239.42-6.66s59.13,27.63,83.17-29.35-44.61-71.24-59.12-97.58,64.5-25.24,108.4-68S878.17,363.19,752.39,350.73Z"/><path class="cls-1" d="M543.63,111.52a39.2,39.2,0,1,1,39.2-39.2A39.24,39.24,0,0,1,543.63,111.52Zm0-73.46a34.26,34.26,0,1,0,34.26,34.26A34.3,34.3,0,0,0,543.63,38.06Z"/><path class="cls-1" d="M543.63,123.05a50.73,50.73,0,1,1,50.72-50.73A50.79,50.79,0,0,1,543.63,123.05Zm0-96.52a45.79,45.79,0,1,0,45.79,45.79A45.84,45.84,0,0,0,543.63,26.53Z"/><path class="cls-1" d="M541.29,100.6v-7a20.07,20.07,0,0,1-10.54-3L532.4,86a18.3,18.3,0,0,0,9.92,3c4.89,0,8.2-2.83,8.2-6.75s-2.69-6.14-7.79-8.2c-7-2.76-11.36-5.93-11.36-11.92,0-5.72,4.06-10.06,10.4-11.09V44H546v6.68a18.26,18.26,0,0,1,9,2.42l-1.72,4.54a16.73,16.73,0,0,0-8.68-2.34c-5.3,0-7.3,3.17-7.3,5.92,0,3.59,2.55,5.38,8.54,7.86,7.1,2.89,10.68,6.47,10.68,12.6,0,5.45-3.79,10.54-10.88,11.71v7.17Z"/><g class="cls-3"><path class="cls-1" d="M530.75,44v0Z"/><rect class="cls-1" x="530.75" y="44.04" width="0.27" height="56.55"/><rect class="cls-1" x="531.02" y="44.04" width="0.27" height="56.55"/><rect class="cls-1" x="531.29" y="44.04" width="0.27" height="56.55"/><rect class="cls-1" x="531.57" y="44.04" width="0.27" height="56.55"/><rect class="cls-1" x="531.84" y="44.04" width="0.27" height="56.55"/><rect class="cls-1" x="532.12" y="44.04" width="0.27" height="56.55"/><rect class="cls-1" x="532.39" y="44.04" width="0.27" height="56.55"/><rect class="cls-1" x="532.66" y="44.04" width="0.27" height="56.55"/><rect class="cls-1" x="532.94" y="44.04" width="0.27" height="56.55"/><rect class="cls-1" x="533.21" y="44.04" width="0.27" height="56.55"/><rect class="cls-1" x="533.49" y="44.04" width="0.27" height="56.55"/><rect class="cls-1" x="533.76" y="44.04" width="0.27" height="56.55"/><rect class="cls-1" x="534.03" y="44.04" width="0.27" height="56.55"/><rect class="cls-1" x="534.31" y="44.04" width="0.27" height="56.55"/><rect class="cls-1" x="534.58" y="44.04" width="0.27" height="56.55"/><rect class="cls-1" x="534.86" y="44.04" width="0.27" height="56.55"/><rect class="cls-1" x="535.13" y="44.04" width="0.27" height="56.55"/><rect class="cls-1" x="535.41" y="44.04" width="0.27" height="56.55"/><rect class="cls-1" x="535.68" y="44.04" width="0.27" height="56.55"/><rect class="cls-1" x="535.95" y="44.04" width="0.27" height="56.55"/><rect class="cls-1" x="536.23" y="44.04" width="0.27" height="56.55"/><rect class="cls-1" x="536.5" y="44.04" width="0.27" height="56.55"/><rect class="cls-1" x="536.78" y="44.04" width="0.27" height="56.55"/><rect class="cls-1" x="537.05" y="44.04" width="0.27" height="56.55"/><rect class="cls-1" x="537.32" y="44.04" width="0.27" height="56.55"/><rect class="cls-1" x="537.6" y="44.04" width="0.27" height="56.55"/><rect class="cls-1" x="537.87" y="44.04" width="0.27" height="56.55"/><rect class="cls-1" x="538.15" y="44.04" width="0.27" height="56.55"/><rect class="cls-1" x="538.42" y="44.04" width="0.27" height="56.55"/><rect class="cls-1" x="538.69" y="44.04" width="0.27" height="56.55"/><rect class="cls-1" x="538.97" y="44.04" width="0.27" height="56.55"/><rect class="cls-1" x="539.24" y="44.04" width="0.27" height="56.55"/><rect class="cls-1" x="539.52" y="44.04" width="0.27" height="56.55"/><rect class="cls-1" x="539.79" y="44.04" width="0.27" height="56.55"/><rect class="cls-1" x="540.06" y="44.04" width="0.27" height="56.55"/><rect class="cls-1" x="540.34" y="44.04" width="0.27" height="56.55"/><rect class="cls-1" x="540.61" y="44.04" width="0.27" height="56.55"/><rect class="cls-1" x="540.89" y="44.04" width="0.27" height="56.55"/><rect class="cls-1" x="541.16" y="44.04" width="0.27" height="56.55"/><rect class="cls-1" x="541.43" y="44.04" width="0.27" height="56.55"/><rect class="cls-1" x="541.71" y="44.04" width="0.27" height="56.55"/><rect class="cls-1" x="541.98" y="44.04" width="0.27" height="56.55"/><rect class="cls-1" x="542.26" y="44.04" width="0.27" height="56.55"/><rect class="cls-1" x="542.53" y="44.04" width="0.27" height="56.55"/><rect class="cls-1" x="542.81" y="44.04" width="0.27" height="56.55"/><rect class="cls-1" x="543.08" y="44.04" width="0.27" height="56.55"/><rect class="cls-1" x="543.35" y="44.04" width="0.27" height="56.55"/><rect class="cls-1" x="543.63" y="44.04" width="0.27" height="56.55"/><rect class="cls-1" x="543.9" y="44.04" width="0.27" height="56.55"/><rect class="cls-1" x="544.18" y="44.04" width="0.27" height="56.55"/><rect class="cls-1" x="544.45" y="44.04" width="0.27" height="56.55"/><rect class="cls-1" x="544.72" y="44.04" width="0.27" height="56.55"/><rect class="cls-1" x="545" y="44.04" width="0.27" height="56.55"/><rect class="cls-1" x="545.27" y="44.04" width="0.27" height="56.55"/><rect class="cls-1" x="545.55" y="44.04" width="0.27" height="56.55"/><rect class="cls-1" x="545.82" y="44.04" width="0.27" height="56.55"/><rect class="cls-1" x="546.09" y="44.04" width="0.27" height="56.55"/><rect class="cls-1" x="546.37" y="44.04" width="0.27" height="56.55"/><rect class="cls-1" x="546.64" y="44.04" width="0.27" height="56.55"/><rect class="cls-1" x="546.92" y="44.04" width="0.27" height="56.55"/><rect class="cls-1" x="547.19" y="44.04" width="0.27" height="56.55"/><rect class="cls-1" x="547.46" y="44.04" width="0.27" height="56.55"/><rect class="cls-1" x="547.74" y="44.04" width="0.27" height="56.55"/><rect class="cls-1" x="548.01" y="44.04" width="0.27" height="56.55"/><rect class="cls-1" x="548.29" y="44.04" width="0.27" height="56.55"/><rect class="cls-1" x="548.56" y="44.04" width="0.27" height="56.55"/><rect class="cls-1" x="548.84" y="44.04" width="0.27" height="56.55"/><rect class="cls-1" x="549.11" y="44.04" width="0.27" height="56.55"/><rect class="cls-1" x="549.38" y="44.04" width="0.27" height="56.55"/><rect class="cls-1" x="549.66" y="44.04" width="0.27" height="56.55"/><rect class="cls-1" x="549.93" y="44.04" width="0.27" height="56.55"/><rect class="cls-1" x="550.21" y="44.04" width="0.27" height="56.55"/><rect class="cls-1" x="550.48" y="44.04" width="0.27" height="56.55"/><rect class="cls-1" x="550.75" y="44.04" width="0.27" height="56.55"/><rect class="cls-1" x="551.03" y="44.04" width="0.27" height="56.55"/><rect class="cls-1" x="551.3" y="44.04" width="0.27" height="56.55"/><rect class="cls-1" x="551.58" y="44.04" width="0.27" height="56.55"/><rect class="cls-1" x="551.85" y="44.04" width="0.27" height="56.55"/><rect class="cls-1" x="552.12" y="44.04" width="0.27" height="56.55"/><rect class="cls-1" x="552.4" y="44.04" width="0.27" height="56.55"/><rect class="cls-1" x="552.67" y="44.04" width="0.27" height="56.55"/><rect class="cls-1" x="552.95" y="44.04" width="0.27" height="56.55"/><rect class="cls-1" x="553.22" y="44.04" width="0.27" height="56.55"/><rect class="cls-1" x="553.49" y="44.04" width="0.27" height="56.55"/><rect class="cls-1" x="553.77" y="44.04" width="0.27" height="56.55"/><rect class="cls-1" x="554.04" y="44.04" width="0.27" height="56.55"/><rect class="cls-1" x="554.32" y="44.04" width="0.27" height="56.55"/><rect class="cls-1" x="554.59" y="44.04" width="0.27" height="56.55"/><rect class="cls-1" x="554.86" y="44.04" width="0.27" height="56.55"/><rect class="cls-1" x="555.14" y="44.04" width="0.27" height="56.55"/><rect class="cls-1" x="555.41" y="44.04" width="0.27" height="56.55"/><rect class="cls-1" x="555.69" y="44.04" width="0.27" height="56.55"/><rect class="cls-1" x="555.96" y="44.04" width="0.27" height="56.55"/><rect class="cls-1" x="556.24" y="44.04" width="0.27" height="56.55"/><path class="cls-1" d="M556.51,100.6v0Z"/></g><rect class="cls-4" x="288.56" y="57.02" width="8.88" height="640.67"/><rect class="cls-4" x="42.74" y="93.39" width="480.29" height="322.16"/><rect class="cls-1" x="51.03" y="102.33" width="463.91" height="295.22"/><rect class="cls-4" x="163.33" y="77.88" width="132.87" height="2.62" transform="translate(-13.21 74.27) rotate(-17.86)"/><rect class="cls-4" x="355.62" y="12.75" width="2.62" height="132.87" transform="translate(172.14 394.66) rotate(-72.15)"/><path class="cls-4" d="M406.68,699.53H174.83a3,3,0,0,1-1.83-5.26l118.17-93.66a2.94,2.94,0,0,1,3.7,0l113.69,93.66a2.95,2.95,0,0,1-1.88,5.22Zm-223.39-5.9H398.47L293,606.71Z"/><path class="cls-2" d="M118.43,257.32v12c1.28-.11,2.57-.17,3.88-.17s2.6.06,3.87.17v-12Zm3.92,9.17h-.08v-7.88h.08Zm-3.92-11.72v1.28h7.75v-1.28Z"/><path class="cls-2" d="M113.61,252.21v9H131v-9Zm13.55,5.11h-9.71v-1.27h9.71Z"/><path class="cls-2" d="M97.56,350.73c-1.11.79-2.26,1.57-3.4,2.33-5.19,3.45-10.37,6.41-12.62,7,.47-2.11,3.21-6.92,6.76-11.93.74-1.05,1.51-2.1,2.3-3.14-.89-.89-1.74-1.84-2.54-2.81a1.83,1.83,0,0,0-.46.42c-.06.08-.85,1.11-2,2.67-1,1.34-2.16,3.08-3.34,4.93-4.92,7.7-5,10.39-4.45,11.87a2.75,2.75,0,0,0,1.83,1.76,3.5,3.5,0,0,0,1.11.17c1.73,0,4.83-1,11.64-5.24,1.92-1.2,3.75-2.41,5.23-3.4,2-1.35,3.32-2.32,3.41-2.38a.2.2,0,0,0,.07-.06C99.91,352.23,98.71,351.51,97.56,350.73Z"/><path class="cls-2" d="M92.63,280.36l0,.22c-.54.47-1.06,1-1.57,1.47l-.3,0a1.9,1.9,0,0,1-1.66-1l-.93-1.61-1.79-3.07-1.92-3.33,3.43-1.73,1.93,3.33L91,276.85l1.36,2.34A2,2,0,0,1,92.63,280.36Z"/><path class="cls-2" d="M102.72,273.72c-1.14.56-2.25,1.17-3.33,1.82,0,0-.07-.1-.11-.15l-1.88-3.13-.66-1.08-2-3.3,3.44-1.74,2,3.3.58,1,1.81,3A1.68,1.68,0,0,1,102.72,273.72Z"/><path class="cls-2" d="M166.78,362.05a2.75,2.75,0,0,1-1.84,1.76,3.43,3.43,0,0,1-1.1.17c-1.74,0-4.83-1-11.64-5.24-1.93-1.2-3.76-2.41-5.24-3.4-2-1.35-3.31-2.32-3.4-2.38l-.08-.06c1.23-.67,2.42-1.39,3.58-2.17,1.11.79,2.25,1.57,3.39,2.33,5.2,3.45,10.39,6.42,12.64,7-.47-2.1-3.21-6.92-6.78-11.95-.2-.29-.42-.59-.64-.89l-.58-.8c-.24-.32-.48-.65-.73-1-.11-.16-.23-.32-.35-.47.89-.9,1.74-1.84,2.55-2.81a1.83,1.83,0,0,1,.46.42c.06.08.85,1.11,2,2.67,1,1.34,2.16,3.08,3.33,4.93C167.25,357.88,167.29,360.57,166.78,362.05Z"/><path class="cls-2" d="M160.2,273.1l-1.93,3.33-1.78,3.08-.93,1.6a1.92,1.92,0,0,1-1.66,1,1.63,1.63,0,0,1-.31,0c-.5-.5-1-1-1.56-1.47a1.86,1.86,0,0,1,.21-1.39l1.35-2.34,1.25-2.15,1.93-3.33Z"/><path class="cls-2" d="M149.86,267.88l-2,3.3-.66,1.08-1.88,3.13c0,.05-.07.11-.11.15-1.08-.65-2.19-1.25-3.34-1.82a1.68,1.68,0,0,1,.15-.3l1.81-3,.58-1,2-3.3Z"/><path class="cls-2" d="M122.31,275.44a38.28,38.28,0,1,0,38.27,38.28A38.33,38.33,0,0,0,122.31,275.44Zm30.5,54.26a35.27,35.27,0,0,1-1.84,3.08,34.6,34.6,0,0,1-10.05,9.9,35.23,35.23,0,0,1-3.22,1.84,34,34,0,0,1-13.53,3.58c-.61,0-1.23,0-1.86,0s-1.25,0-1.86,0a34,34,0,0,1-13.53-3.58,35.23,35.23,0,0,1-3.22-1.84,34.48,34.48,0,0,1-10-9.9,33,33,0,0,1-1.84-3.08,34.19,34.19,0,0,1-3.87-13.83h0c0-.71-.07-1.42-.07-2.14,0-.42,0-.84,0-1.25a34.11,34.11,0,0,1,3.67-14.26q.71-1.38,1.53-2.7a34.49,34.49,0,0,1,10.6-10.74q1.18-.78,2.43-1.44a34.06,34.06,0,0,1,14.82-4c.45,0,.9,0,1.36,0s.91,0,1.37,0a34,34,0,0,1,14.8,4c.83.44,1.65.92,2.44,1.44a34.49,34.49,0,0,1,10.6,10.74q.82,1.32,1.53,2.7a34.26,34.26,0,0,1,3.67,14.26c0,.41,0,.83,0,1.25,0,.72,0,1.43-.07,2.14A34.19,34.19,0,0,1,152.81,329.7Z"/><path class="cls-2" d="M122.31,289.32a1.92,1.92,0,0,1-1.92-1.92v-6.73a1.92,1.92,0,0,1,3.84,0v6.73A1.92,1.92,0,0,1,122.31,289.32Z"/><path class="cls-2" d="M122.31,349.56a1.92,1.92,0,0,1-1.92-1.92v-6.73a1.92,1.92,0,0,1,3.84,0v6.73A1.92,1.92,0,0,1,122.31,349.56Z"/><path class="cls-2" d="M108.93,292.9a1.9,1.9,0,0,1-1.66-1l-3.37-5.82a1.92,1.92,0,0,1,3.33-1.92l3.36,5.82a1.91,1.91,0,0,1-1.66,2.88Z"/><path class="cls-2" d="M139.05,345.07a1.9,1.9,0,0,1-1.66-1L134,338.29a1.92,1.92,0,0,1,3.33-1.92l3.36,5.82a1.91,1.91,0,0,1-1.66,2.88Z"/><path class="cls-2" d="M99.13,302.7a1.9,1.9,0,0,1-1-.26l-5.82-3.36a1.92,1.92,0,0,1,1.92-3.33l5.83,3.36a1.92,1.92,0,0,1-1,3.59Z"/><path class="cls-2" d="M151.3,332.82a1.9,1.9,0,0,1-1-.26l-5.82-3.36a1.92,1.92,0,0,1,1.92-3.33l5.82,3.36a1.92,1.92,0,0,1-1,3.59Z"/><path class="cls-2" d="M95.55,316.08H88.83a1.92,1.92,0,0,1,0-3.84h6.72a1.92,1.92,0,0,1,0,3.84Z"/><path class="cls-2" d="M155.79,316.08h-6.72a1.92,1.92,0,0,1,0-3.84h6.72a1.92,1.92,0,1,1,0,3.84Z"/><path class="cls-2" d="M93.31,332.82a1.92,1.92,0,0,1-1-3.59l5.82-3.36a1.92,1.92,0,1,1,1.93,3.33l-5.83,3.36A1.85,1.85,0,0,1,93.31,332.82Z"/><path class="cls-2" d="M145.48,302.7a1.92,1.92,0,0,1-1-3.59l5.82-3.36a1.92,1.92,0,1,1,1.92,3.33l-5.82,3.36A1.85,1.85,0,0,1,145.48,302.7Z"/><path class="cls-2" d="M105.56,345.07a1.92,1.92,0,0,1-1.66-2.88l3.37-5.82a1.92,1.92,0,0,1,3.32,1.92l-3.36,5.82A1.92,1.92,0,0,1,105.56,345.07Z"/><path class="cls-2" d="M135.68,292.9A1.92,1.92,0,0,1,134,290l3.37-5.82a1.92,1.92,0,0,1,3.32,1.92l-3.36,5.82A1.92,1.92,0,0,1,135.68,292.9Z"/><path class="cls-2" d="M155.67,347.21l-.58-.8c-.24-.32-.48-.65-.73-1-.11-.16-.23-.32-.35-.47a44.13,44.13,0,0,1-6.95,5.76c1.11.79,2.25,1.57,3.39,2.33a49.57,49.57,0,0,0,5.86-5C156.11,347.81,155.89,347.51,155.67,347.21ZM92.59,280.58a43.69,43.69,0,0,1,6.8-5s-.07-.1-.11-.15l-1.88-3.13A46.45,46.45,0,0,0,91,276.85l1.36,2.34a2,2,0,0,1,.25,1.17ZM90.6,345c-.79,1-1.56,2.09-2.3,3.14a50.45,50.45,0,0,0,5.86,4.95c1.14-.76,2.29-1.54,3.4-2.33A44.66,44.66,0,0,1,90.6,345Zm65.07,2.24-.58-.8c-.24-.32-.48-.65-.73-1-.11-.16-.23-.32-.35-.47a44.13,44.13,0,0,1-6.95,5.76c1.11.79,2.25,1.57,3.39,2.33a49.57,49.57,0,0,0,5.86-5C156.11,347.81,155.89,347.51,155.67,347.21ZM92.59,280.58a43.69,43.69,0,0,1,6.8-5s-.07-.1-.11-.15l-1.88-3.13A46.45,46.45,0,0,0,91,276.85l1.36,2.34a2,2,0,0,1,.25,1.17ZM90.6,345c-.79,1-1.56,2.09-2.3,3.14a50.45,50.45,0,0,0,5.86,4.95c1.14-.76,2.29-1.54,3.4-2.33A44.66,44.66,0,0,1,90.6,345Zm65.07,2.24-.58-.8c-.24-.32-.48-.65-.73-1-.11-.16-.23-.32-.35-.47a44.13,44.13,0,0,1-6.95,5.76c1.11.79,2.25,1.57,3.39,2.33a49.57,49.57,0,0,0,5.86-5C156.11,347.81,155.89,347.51,155.67,347.21ZM92.59,280.58a43.69,43.69,0,0,1,6.8-5s-.07-.1-.11-.15l-1.88-3.13A46.45,46.45,0,0,0,91,276.85l1.36,2.34a2,2,0,0,1,.25,1.17ZM90.6,345c-.79,1-1.56,2.09-2.3,3.14a50.45,50.45,0,0,0,5.86,4.95c1.14-.76,2.29-1.54,3.4-2.33A44.66,44.66,0,0,1,90.6,345Zm65.07,2.24-.58-.8c-.24-.32-.48-.65-.73-1-.11-.16-.23-.32-.35-.47a44.13,44.13,0,0,1-6.95,5.76c1.11.79,2.25,1.57,3.39,2.33a49.57,49.57,0,0,0,5.86-5C156.11,347.81,155.89,347.51,155.67,347.21ZM92.59,280.58a43.69,43.69,0,0,1,6.8-5s-.07-.1-.11-.15l-1.88-3.13A46.45,46.45,0,0,0,91,276.85l1.36,2.34a2,2,0,0,1,.25,1.17ZM90.6,345c-.79,1-1.56,2.09-2.3,3.14a50.45,50.45,0,0,0,5.86,4.95c1.14-.76,2.29-1.54,3.4-2.33A44.66,44.66,0,0,1,90.6,345Zm65.07,2.24-.58-.8c-.24-.32-.48-.65-.73-1-.11-.16-.23-.32-.35-.47a44.13,44.13,0,0,1-6.95,5.76c1.11.79,2.25,1.57,3.39,2.33a49.57,49.57,0,0,0,5.86-5C156.11,347.81,155.89,347.51,155.67,347.21ZM92.59,280.58a43.69,43.69,0,0,1,6.8-5s-.07-.1-.11-.15l-1.88-3.13A46.45,46.45,0,0,0,91,276.85l1.36,2.34a2,2,0,0,1,.25,1.17ZM90.6,345c-.79,1-1.56,2.09-2.3,3.14a50.45,50.45,0,0,0,5.86,4.95c1.14-.76,2.29-1.54,3.4-2.33A44.66,44.66,0,0,1,90.6,345Zm65.07,2.24-.58-.8c-.24-.32-.48-.65-.73-1-.11-.16-.23-.32-.35-.47a44.13,44.13,0,0,1-6.95,5.76c1.11.79,2.25,1.57,3.39,2.33a49.57,49.57,0,0,0,5.86-5C156.11,347.81,155.89,347.51,155.67,347.21ZM97.4,272.26A46.45,46.45,0,0,0,91,276.85l1.36,2.34a2,2,0,0,1,.25,1.17l0,.22a43.69,43.69,0,0,1,6.8-5s-.07-.1-.11-.15Zm-9.1,75.85a50.45,50.45,0,0,0,5.86,4.95c1.14-.76,2.29-1.54,3.4-2.33a44.66,44.66,0,0,1-7-5.76C89.81,346,89,347.06,88.3,348.11Zm68.19-68.6c-.93-.93-1.9-1.82-2.9-2.66a47.22,47.22,0,0,0-6.37-4.59c-1.1-.66-2.22-1.28-3.37-1.85a47.83,47.83,0,0,0-17.67-4.92c-1.26-.1-2.54-.15-3.83-.15h-.08q-1.93,0-3.84.15a47.94,47.94,0,0,0-17.67,4.92c-1.15.57-2.27,1.19-3.36,1.85A46.45,46.45,0,0,0,91,276.85c-1,.84-2,1.73-2.89,2.65a48.31,48.31,0,0,0-2.5,65.75c.86,1,1.75,1.94,2.67,2.86a50.45,50.45,0,0,0,5.86,4.95c1.13.81,2.3,1.57,3.49,2.28a48.34,48.34,0,0,0,49.31,0c1.2-.71,2.36-1.47,3.49-2.28a49.57,49.57,0,0,0,5.86-5c.93-.91,1.82-1.86,2.68-2.85a48.32,48.32,0,0,0-2.5-65.74Zm.07,62.65c-.81,1-1.66,1.91-2.55,2.81a44.13,44.13,0,0,1-6.95,5.76c-1.16.78-2.35,1.5-3.58,2.17a44.51,44.51,0,0,1-42.35,0c-1.22-.67-2.42-1.39-3.57-2.17a44.66,44.66,0,0,1-7-5.76c-.89-.89-1.74-1.84-2.54-2.81a44.46,44.46,0,0,1,3-60.11c.51-.51,1-1,1.57-1.47a43.69,43.69,0,0,1,6.8-5c1.08-.65,2.19-1.26,3.33-1.82a44,44,0,0,1,15.71-4.37c1.28-.11,2.57-.17,3.88-.17s2.6.06,3.87.17a44,44,0,0,1,15.71,4.37c1.15.57,2.26,1.17,3.34,1.82a43.69,43.69,0,0,1,6.8,5c.53.47,1.06,1,1.56,1.47a44.45,44.45,0,0,1,3,60.11ZM90.6,345c-.79,1-1.56,2.09-2.3,3.14a50.45,50.45,0,0,0,5.86,4.95c1.14-.76,2.29-1.54,3.4-2.33A44.66,44.66,0,0,1,90.6,345Zm2-64.39a43.69,43.69,0,0,1,6.8-5s-.07-.1-.11-.15l-1.88-3.13A46.45,46.45,0,0,0,91,276.85l1.36,2.34a2,2,0,0,1,.25,1.17Zm63.08,66.63-.58-.8c-.24-.32-.48-.65-.73-1-.11-.16-.23-.32-.35-.47a44.13,44.13,0,0,1-6.95,5.76c1.11.79,2.25,1.57,3.39,2.33a49.57,49.57,0,0,0,5.86-5C156.11,347.81,155.89,347.51,155.67,347.21ZM90.6,345c-.79,1-1.56,2.09-2.3,3.14a50.45,50.45,0,0,0,5.86,4.95c1.14-.76,2.29-1.54,3.4-2.33A44.66,44.66,0,0,1,90.6,345Zm2-64.39a43.69,43.69,0,0,1,6.8-5s-.07-.1-.11-.15l-1.88-3.13A46.45,46.45,0,0,0,91,276.85l1.36,2.34a2,2,0,0,1,.25,1.17Zm63.08,66.63-.58-.8c-.24-.32-.48-.65-.73-1-.11-.16-.23-.32-.35-.47a44.13,44.13,0,0,1-6.95,5.76c1.11.79,2.25,1.57,3.39,2.33a49.57,49.57,0,0,0,5.86-5C156.11,347.81,155.89,347.51,155.67,347.21ZM90.6,345c-.79,1-1.56,2.09-2.3,3.14a50.45,50.45,0,0,0,5.86,4.95c1.14-.76,2.29-1.54,3.4-2.33A44.66,44.66,0,0,1,90.6,345Zm2-64.39a43.69,43.69,0,0,1,6.8-5s-.07-.1-.11-.15l-1.88-3.13A46.45,46.45,0,0,0,91,276.85l1.36,2.34a2,2,0,0,1,.25,1.17Zm63.08,66.63-.58-.8c-.24-.32-.48-.65-.73-1-.11-.16-.23-.32-.35-.47a44.13,44.13,0,0,1-6.95,5.76c1.11.79,2.25,1.57,3.39,2.33a49.57,49.57,0,0,0,5.86-5C156.11,347.81,155.89,347.51,155.67,347.21ZM90.6,345c-.79,1-1.56,2.09-2.3,3.14a50.45,50.45,0,0,0,5.86,4.95c1.14-.76,2.29-1.54,3.4-2.33A44.66,44.66,0,0,1,90.6,345Zm2-64.39a43.69,43.69,0,0,1,6.8-5s-.07-.1-.11-.15l-1.88-3.13A46.45,46.45,0,0,0,91,276.85l1.36,2.34a2,2,0,0,1,.25,1.17Zm63.08,66.63-.58-.8c-.24-.32-.48-.65-.73-1-.11-.16-.23-.32-.35-.47a44.13,44.13,0,0,1-6.95,5.76c1.11.79,2.25,1.57,3.39,2.33a49.57,49.57,0,0,0,5.86-5C156.11,347.81,155.89,347.51,155.67,347.21ZM90.6,345c-.79,1-1.56,2.09-2.3,3.14a50.45,50.45,0,0,0,5.86,4.95c1.14-.76,2.29-1.54,3.4-2.33A44.66,44.66,0,0,1,90.6,345Zm2-64.39a43.69,43.69,0,0,1,6.8-5s-.07-.1-.11-.15l-1.88-3.13A46.45,46.45,0,0,0,91,276.85l1.36,2.34a2,2,0,0,1,.25,1.17Zm63.08,66.63-.58-.8c-.24-.32-.48-.65-.73-1-.11-.16-.23-.32-.35-.47a44.13,44.13,0,0,1-6.95,5.76c1.11.79,2.25,1.57,3.39,2.33a49.57,49.57,0,0,0,5.86-5C156.11,347.81,155.89,347.51,155.67,347.21ZM90.6,345c-.79,1-1.56,2.09-2.3,3.14a50.45,50.45,0,0,0,5.86,4.95c1.14-.76,2.29-1.54,3.4-2.33A44.66,44.66,0,0,1,90.6,345Zm2-64.39a43.69,43.69,0,0,1,6.8-5s-.07-.1-.11-.15l-1.88-3.13A46.45,46.45,0,0,0,91,276.85l1.36,2.34a2,2,0,0,1,.25,1.17Zm63.08,66.63-.58-.8c-.24-.32-.48-.65-.73-1-.11-.16-.23-.32-.35-.47a44.13,44.13,0,0,1-6.95,5.76c1.11.79,2.25,1.57,3.39,2.33a49.57,49.57,0,0,0,5.86-5C156.11,347.81,155.89,347.51,155.67,347.21Z"/><path class="cls-2" d="M122.31,275.44a38.28,38.28,0,1,0,38.27,38.28A38.33,38.33,0,0,0,122.31,275.44Zm30.5,54.26a35.27,35.27,0,0,1-1.84,3.08,34.6,34.6,0,0,1-10.05,9.9,35.23,35.23,0,0,1-3.22,1.84,34,34,0,0,1-13.53,3.58c-.61,0-1.23,0-1.86,0s-1.25,0-1.86,0a34,34,0,0,1-13.53-3.58,35.23,35.23,0,0,1-3.22-1.84,34.48,34.48,0,0,1-10-9.9,33,33,0,0,1-1.84-3.08,34.19,34.19,0,0,1-3.87-13.83h0c0-.71-.07-1.42-.07-2.14,0-.42,0-.84,0-1.25a34.11,34.11,0,0,1,3.67-14.26q.71-1.38,1.53-2.7a34.49,34.49,0,0,1,10.6-10.74q1.18-.78,2.43-1.44a34.06,34.06,0,0,1,14.82-4c.45,0,.9,0,1.36,0s.91,0,1.37,0a34,34,0,0,1,14.8,4c.83.44,1.65.92,2.44,1.44a34.49,34.49,0,0,1,10.6,10.74q.82,1.32,1.53,2.7a34.26,34.26,0,0,1,3.67,14.26c0,.41,0,.83,0,1.25,0,.72,0,1.43-.07,2.14A34.19,34.19,0,0,1,152.81,329.7Z"/><path class="cls-2" d="M122.31,292a1.92,1.92,0,0,1-1.92-1.92v-6a1.92,1.92,0,0,1,3.84,0v6A1.92,1.92,0,0,1,122.31,292Z"/><path class="cls-2" d="M122.31,346.2a1.92,1.92,0,0,1-1.92-1.92v-6a1.92,1.92,0,1,1,3.84,0v6A1.92,1.92,0,0,1,122.31,346.2Z"/><path class="cls-2" d="M110.27,295.23a1.91,1.91,0,0,1-1.66-1l-3-5.24a1.92,1.92,0,0,1,3.33-1.92l3,5.24a1.92,1.92,0,0,1-.71,2.62A1.85,1.85,0,0,1,110.27,295.23Z"/><path class="cls-2" d="M137.37,342.16a1.93,1.93,0,0,1-1.67-1l-3-5.24A1.92,1.92,0,0,1,136,334l3,5.24a1.91,1.91,0,0,1-.7,2.62A1.85,1.85,0,0,1,137.37,342.16Z"/><path class="cls-2" d="M101.46,304a1.85,1.85,0,0,1-1-.26l-5.24-3a1.92,1.92,0,0,1,1.92-3.33l5.24,3a1.92,1.92,0,0,1-1,3.58Z"/><path class="cls-2" d="M148.39,331.14a2,2,0,0,1-1-.26l-5.24-3a1.92,1.92,0,0,1,1.92-3.32l5.24,3a1.93,1.93,0,0,1,.71,2.63A2,2,0,0,1,148.39,331.14Z"/><path class="cls-2" d="M98.24,316.08h-6a1.92,1.92,0,0,1,0-3.84h6a1.92,1.92,0,0,1,0,3.84Z"/><path class="cls-2" d="M152.43,316.08h-6.05a1.92,1.92,0,0,1,0-3.84h6.05a1.92,1.92,0,0,1,0,3.84Z"/><path class="cls-2" d="M96.23,331.14a1.92,1.92,0,0,1-1-3.59l5.24-3a1.92,1.92,0,1,1,1.92,3.32l-5.24,3A1.94,1.94,0,0,1,96.23,331.14Z"/><path class="cls-2" d="M143.16,304a1.92,1.92,0,0,1-1-3.58l5.24-3a1.92,1.92,0,1,1,1.92,3.33l-5.24,3A1.84,1.84,0,0,1,143.16,304Z"/><path class="cls-2" d="M107.25,342.16a1.85,1.85,0,0,1-1-.26,1.92,1.92,0,0,1-.71-2.62l3-5.24a1.92,1.92,0,0,1,3.33,1.92l-3,5.24A1.9,1.9,0,0,1,107.25,342.16Z"/><path class="cls-2" d="M134.34,295.23a1.92,1.92,0,0,1-1.66-2.88l3-5.24A1.92,1.92,0,0,1,139,289l-3,5.24A1.92,1.92,0,0,1,134.34,295.23Z"/><path class="cls-2" d="M126.52,311.55a4.75,4.75,0,0,0-4.21-2.57,4.76,4.76,0,0,0-4.7,4.15,3.9,3.9,0,0,0,0,.59,4.73,4.73,0,0,0,9.16,1.68,4.48,4.48,0,0,0,.32-1.68A4.67,4.67,0,0,0,126.52,311.55Zm-3.32,2.17a.9.9,0,1,1-.89-.9A.89.89,0,0,1,123.2,313.72Z"/><path class="cls-2" d="M139.57,315.64h0l-18.32-.34-14.95-9a1.92,1.92,0,1,1,2-3.29l14.07,8.46,17.3.32a1.92,1.92,0,0,1,0,3.84Z"/><path class="cls-2" d="M108.75,252.78a18.15,18.15,0,0,0-24.36-8L74,250a18.16,18.16,0,0,0-8,24.36l5,9.83,15.38-7.77,3.44-1.73,7-3.52,3.44-1.74,13.54-6.84ZM98.2,266.14l-3.44,1.74-6.91,3.49-3.43,1.73L72.67,279l-3.24-6.4a14.31,14.31,0,0,1,6.31-19.2l10.39-5.25a14.3,14.3,0,0,1,19.19,6.31l3.23,6.41Z"/><path class="cls-2" d="M170.61,250l-10.39-5.24a18.13,18.13,0,0,0-24.36,8l-5,9.82,13.53,6.84,3.45,1.74,7,3.52,3.43,1.73,15.38,7.77,5-9.83A18.17,18.17,0,0,0,170.61,250Zm4.58,22.63L172,279,160.2,273.1l-3.43-1.73-6.91-3.49-3.44-1.74-10.36-5.23,3.23-6.41a14.3,14.3,0,0,1,19.2-6.31l10.39,5.25A14.31,14.31,0,0,1,175.19,272.64Z"/><rect class="cls-2" x="81.88" y="124.02" width="199.98" height="85.39" rx="12.29"/><rect class="cls-1" x="95.14" y="138.29" width="43.3" height="43.3"/><rect class="cls-1" x="142.52" y="138.29" width="123.05" height="7.53"/><rect class="cls-1" x="142.52" y="149.42" width="123.05" height="7.53"/><rect class="cls-1" x="142.52" y="160.55" width="123.05" height="7.53"/><rect class="cls-1" x="142.52" y="171.68" width="83.28" height="7.53"/><rect class="cls-4" x="582.86" y="93.39" width="396.61" height="259.66"/><rect class="cls-1" x="590.88" y="100.63" width="380.12" height="245.16"/><rect class="cls-4" x="569.32" y="141.98" width="10.21" height="566.13"/><rect class="cls-4" x="982.79" y="141.98" width="10.21" height="566.13"/><rect class="cls-4" x="574.43" y="356.68" width="413.47" height="11.38"/><path class="cls-2" d="M896.57,223.9a44.61,44.61,0,1,1,44.61-44.61A44.66,44.66,0,0,1,896.57,223.9Zm0-85.7a41.09,41.09,0,1,0,41.1,41.09A41.14,41.14,0,0,0,896.57,138.2Zm0,72.3a31.21,31.21,0,1,1,31.22-31.21A31.24,31.24,0,0,1,896.57,210.5Zm0-58.9a27.69,27.69,0,1,0,27.7,27.69A27.72,27.72,0,0,0,896.57,151.6Z"/><path class="cls-2" d="M896.57,196.72A17.43,17.43,0,1,1,914,179.29,17.45,17.45,0,0,1,896.57,196.72Zm0-31.34a13.91,13.91,0,1,0,13.92,13.91A13.93,13.93,0,0,0,896.57,165.38Z"/><path class="cls-2" d="M899.6,179.8h-.76a4.35,4.35,0,0,1-3.94-3.08l-.3-.91,40.87-50.71,1,.14c.93.13,4.09.67,5.47,2.21s1.74,4.58,1.8,5.17l.07.81Zm37.33-50.9-34.65,43,37.83-39.68a6.13,6.13,0,0,0-.8-2.4A6.12,6.12,0,0,0,936.93,128.9Z"/><path class="cls-2" d="M919,151.2l-3.06-16.47,18.4-25.47,3.81,18.17Zm.67-15.63L921,143l13.3-16.51-1.83-8.74Z"/><path class="cls-2" d="M937.07,153.93l-16.73-.83,21-22.16,18.51,1.34Zm-8.91-4,7.58.38,15.91-15.12-8.91-.65Z"/><path class="cls-2" d="M939.18,135.82a5.88,5.88,0,1,1,5.88-5.87A5.88,5.88,0,0,1,939.18,135.82Zm0-8.23a2.36,2.36,0,1,0,2.36,2.36A2.36,2.36,0,0,0,939.18,127.59Z"/><path class="cls-4" d="M457.05,674.52c-95.67.74-112.94,9.34-104.28,15.07S93.43,686.21,90.1,694.1s30.86,6.81,31,15.07S2.25,709.59,0,721s129,8.56,179,8.08,120.09,8.08,81.17,13.78-4.45,11.89,111.2,12.36,293.56-1,328-5.7-37.81-12,8.89-17.91,164-6.94,200.16-8.71c38.92-1.9,93.41-17.94,61.16-19.51-52.18-2.55-20-6.71-93.41-9.28s-167-1.79-145.76-5.51S639.28,673.11,457.05,674.52Z"/><path class="cls-5" d="M439.69,324.81a13.44,13.44,0,0,0,3.44,3.92,14.51,14.51,0,0,0,8.37,3.11c6.52.33,41.64-6.26,57-9.23l4.71-.91c1.61-.31,2.51-.5,2.51-.5s-2.91-6.8-7.58-9.63a15.22,15.22,0,0,0-5.85-1.82,31.31,31.31,0,0,0-6.8-.1L463.24,307l-9.06-.94s-10.58-.95-14.49,5.45S439.69,324.81,439.69,324.81Z"/><polygon class="cls-6" points="296.83 324.68 294.33 325.13 295.3 328.21 296.83 324.68"/><path class="cls-7" d="M320,657.72a23.45,23.45,0,0,0-5.63,8.63c-1.88,5.25-8.25,20.09-8.17,23.83s7.11,28.57,8.71,29.34,21.87-20.29,23.78-24.22,4.08-26.74,4.23-29-2-6-2-6Z"/><path class="cls-7" d="M416.32,695.16c-.55-.25-2.18-6.88-2.57-14.22S419.66,649.35,424,650s7.84,12.64,12.58,20.64A133.11,133.11,0,0,0,447,685.56l9.08-5.52s11.44,7.32,15.45,9.78,10.14,5.94,10.08,6.93-10,2-18.44,1.52-23.38-1.77-24.22-2.27-7.5-19.38-8.39-20.87-3.85-1.57-4.92-.32-5.26,13.15-6.25,16.49S417.46,695.67,416.32,695.16Z"/><path class="cls-5" d="M315.57,688.27l5.4.79,11.13,1.63s1-1.7,3-5.84,6.22-25.83,7.44-34.31,14-42.33,19.6-57.11,4.75-30.64,4.9-33c.08-1.24,3.77-13.64,8-27.13l1.4-4.4c3.37-10.59,6.9-21.19,9.09-27,1.94-5.1,5.81-19.48,9.95-35.73,7.23-28.38,15.29-62.43,15.29-62.43l-25.17-.66-32.42-.85-9.68,31.83,2.3,51.07A295.54,295.54,0,0,0,339.42,516c-.72,4.46-1.26,8.9-1.67,13.14-1.3,13.52-1.3,25.08-1.58,29.24-.37,5.47-1.56,6.92-4.11,18.83s-6.84,53.45-8,62.49-3.92,17.64-5.6,23.12S315.57,688.27,315.57,688.27Z"/><path class="cls-5" d="M384.36,394.85s.48,3.1,1.29,8.29c2.05,13.14,6.18,39.65,9.88,63.09,3.43,21.8,6.48,40.94,7.12,44.23.77,4,3.11,12.58,5.32,20.37l.89,3.14c2,6.91,3.65,12.5,3.65,12.5s-4.85,16.81-.87,42.77,11.9,59,11.9,59l3.85,16.4L445.64,689l6.4-4.41,4.64-3.2s-10.23-21.1-12.3-29.58-3-41.26-3-41.26l.15-64s-.06-16-.25-34.7v-.12c-.05-4.3-.1-8.74-.16-13.15,0-.13,0-.26,0-.39-.22-16.57-.56-32.73-1.05-39.86-.33-4.82-1.29-11.7-2.51-19.14-3.19-19.34-8.11-42.39-8.11-42.39Z"/><path class="cls-8" d="M441.3,511.67v.13c0,5.6.27,11.23.15,17.07-8.9,2.75-20,4.51-32.58,5.1-2.43-8.49-5.34-19-6.22-23.5-.64-3.3-3.69-22.44-7.12-44.23-4.14,16.24-8,30.62-9.95,35.72-2.5,6.59-6.72,19.4-10.49,31.38q-17.19-1.25-37.33-4.24c.4-4.25.94-8.69,1.66-13.15a294.9,294.9,0,0,1,6.43-30.75l-2.31-51.08,9.68-31.83,32.43.85c-.81-5.19-1.29-8.29-1.29-8.29l45.11,1.9s4.92,23.05,8.11,42.39c1.78,18.1,3.12,37.67,3.56,59,0,.13,0,.26,0,.39Q441.29,505,441.3,511.67Z"/><path class="cls-9" d="M327.09,520.32c51.6,8.55,90.4,8.81,114.69,1.32,0-.92,0-1.83.05-2.74,1-58.88-5.77-105-11.5-143.9a21.27,21.27,0,0,0-2.63-6.16c-2.45-4.38-6-9.61-7.79-13.07a8.92,8.92,0,0,1-1.17-3.11c-9.66,2.21-21.74-1.71-56.17-3.89a53.25,53.25,0,0,0-4.37,3.69Q330,378.83,341.53,444.12A657.89,657.89,0,0,1,327.09,520.32Z"/><path class="cls-7" d="M327.09,520.32c51.6,8.55,90.4,8.81,114.69,1.32,0-.92,0-1.83.05-2.74-9,1.56-26.16,4.29-31,3.45-6.69-1.15-7.58-53.68-12.33-53.68s-13.16,52.65-17.92,53.68-38.75-4-38.75-7.24,16.09-64.35,15.93-70.93-5.69-20.84-.32-37.29,10.35-12.8,16.93-15.36S378,378,389.62,378.37c9.37.29,30.32-6.79,38.08-9.53-2.45-4.38-6-9.61-7.79-13.07l-61.71-3.31Q330,378.83,341.53,444.12A657.89,657.89,0,0,1,327.09,520.32Z"/><path class="cls-10" d="M318.21,256.59c.22.71.47,1.42.74,2.13,6.36,16,22.72,20.4,22.72,20.4s12.62,2,25.32,2.72a105.53,105.53,0,0,0,14.91,0,44.48,44.48,0,0,0,15.87-5.14,57.08,57.08,0,0,0,15.44-11.59c4.43-4.79,7.43-10.19,7.76-15.61.27-4.22-.77-8.54-2.4-13h0c-.36-1-.76-2-1.17-3-4.63-11.06-12.08-22.9-12.21-36-.19-19.63,2.5-29.26-2.5-42.35S381,137.73,367.46,139.56a24,24,0,0,0-11.16,4.24,25.67,25.67,0,0,0-19.83,5.58c-9.63,7.7-10,22.71-10.58,32.72s0,29.45-1.74,35.23C322.49,222.85,313.45,241,318.21,256.59Z"/><path class="cls-11" d="M318.21,256.59c.22.71.47,1.42.74,2.13,6.36,16,22.72,20.4,22.72,20.4s12.62,2,25.32,2.72c11.24-1.29,22.42-3.39,30.78-5.17s13.88-3.23,13.88-3.23l1.56-8.36,5.36-28.58h0l.2-1.08s-.52-.69-1.37-1.88c-3.69-5.1-13.68-19.48-16.35-28.57-3.29-11.22.37-36.94-4.51-45.46s-19.85-16.34-26.25-9.76l-3,3.66s-12.18,4.64-14.87,13.89-8.77,31.2-16.08,41.93C331.24,216.69,319.76,238.53,318.21,256.59Z"/><path class="cls-4" d="M446.59,328c-6.59.6-9.4-.79-15.32-7.91a48.21,48.21,0,0,1-5.06-7.61c-7.58-13.86-32-54.48-32-54.48s-2.51-14.69,7.47-21.94,20.26.57,21.79,3.66c0,0,1.84,3.68,4.62,9.34,7.34,14.91,21.27,43.49,25.6,54.37C459.63,318.41,450.59,326.86,446.59,328Z"/><path class="cls-12" d="M428.66,265.54c-1-1.67-2-3.34-3-5.05-4.56-8.22-8.74-16.74-12.78-25.23a11,11,0,0,1-.75-2.13A14.53,14.53,0,0,0,401.65,236c-10,7.25-7.47,21.94-7.47,21.94s24.45,40.62,32,54.48a48.21,48.21,0,0,0,5.06,7.61c.32-7.37.69-14.49.69-14.49s.91-9.2,1.71-18.14C432,280.12,430.69,272.73,428.66,265.54Z"/><path class="cls-5" d="M296.16,344.19c3.45,6.61,31.87,39.09,41.27,49.75l3,3.4a27.9,27.9,0,0,0,1.59-2.61c1.34-2.42,3-6.17,3.05-9.71a14.41,14.41,0,0,0-.88-4.79,32.9,32.9,0,0,0-4.19-7.9l-13.55-28.09-1.46-3-4-8.84-1.63-.19-23.15-2.73a14.69,14.69,0,0,0-1.68,5.17A15.71,15.71,0,0,0,296.16,344.19Z"/><polygon class="cls-5" points="358.43 194.69 358.43 223.56 386.54 254.36 396.54 232.22 382.3 221.25 382.13 214.54 381.92 206.05 358.43 194.69"/><polygon class="cls-13" points="358.43 204.96 358.43 222.53 363.57 224.52 363.57 208.55 358.43 204.96"/><path class="cls-13" d="M382.13,214.54a25,25,0,0,1-2.65,2.77c-1,.54-12.09-1.94-15.54-4.64a44.59,44.59,0,0,1-5.51-5.87V194.69L381.92,206Z"/><path class="cls-5" d="M501.32,318.52s1,.59,2.62,1.53c1.22.69,2.8,1.59,4.59,2.56,7.21,3.93,17.75,9.2,21.33,8.55a13.38,13.38,0,0,0,1.47-.34c2.76-.89-2.67-1.7-4.67-3.13-2.24-1.6-4.5-1.92-4.3-2.57s4.88,1.93,7.89,2.7,5.21.94,6.17.36.25-.87-1.16-1.77-8.34-3.14-9.37-3.92,1.54-.44,4,.26,9.12,3.7,9.74,3.07,2.13-2-.82-3.26-9.69-3.66-10.33-4.17,1.54-.32,4.69.58,9.19,3,9.44,2.23.76-2.55-1.49-3.45-11.49-3.67-13.09-4.38-8.85-4-9.05-4.41a19,19,0,0,1,.58-4.69c.2-.32,2.76-1.73,4.11-2.95s.88-2.86-.1-3-7.71-.51-15.46,5.37c0,0-5,4.17-5.83,6l0,.11C501.63,311.65,501.32,318.52,501.32,318.52Z"/><path class="cls-13" d="M443.13,328.73a14.51,14.51,0,0,0,8.37,3.11c6.52.33,41.64-6.26,57-9.23,7.21,3.93,17.75,9.2,21.33,8.55a13.38,13.38,0,0,0,1.47-.34,34.49,34.49,0,0,1-6.89-2c-2.79-1.22-8-4.95-11.2-7.16-1.2-.83-2.12-1.45-2.51-1.65-1.46-.72-5.16-.56-6.79,0s-42.39,8.23-45.68,7.14-2.92-16.09-2.92-16.09S446.44,320.37,443.13,328.73Z"/><path class="cls-5" d="M337.43,393.94a6.65,6.65,0,0,0,2.09,3.85c3.25,2.73,8.82-.83,10.63-2s8.69-9.25,9.05-9.33a40.82,40.82,0,0,1,5.09.86c2,.42,5.12.47,5.72,0l0,0c.57-.49.23-1.77-.55-2.27s-7.31-2-7.78-2,0-.39.79-.42,7.42,1,8.32,1.21.84,0,.85-.57a1.73,1.73,0,0,0-.91-1.43c-.48-.27-3.09-1.23-4-1.55s-.7-.46-.59-.46a10.34,10.34,0,0,1,1.64.19c.92.16,3.39.53,3.71.49s0-1.17-.26-1.6-1.54-1-1.54-1,2.31.48.38-1.58-5.06-2.69-8.07-3.11-9.84,2.32-9.84,2.32-2.81-1.29-4-.31a54.86,54.86,0,0,0-4.05,5c-1.22,1.64-2.22,3-2.22,3l-4.68,5.42s-.08.49-.13,1.25A15,15,0,0,0,337.43,393.94Z"/><path class="cls-13" d="M296.16,344.19c3.45,6.61,31.87,39.09,41.27,49.75a6.65,6.65,0,0,0,2.09,3.85c3.25,2.73,8.82-.83,10.63-2s8.69-9.25,9.05-9.33a40.82,40.82,0,0,1,5.09.86c2,.42,5.12.47,5.72,0l0,0c-2.58.45-8.16-1-9.88-1.35-2.07-.44-2.41,0-2.41,0s-9.17,9-12.68,9.76a4.13,4.13,0,0,1-3.05-1,27.27,27.27,0,0,1-4.86-4.79c-2.35-2.82-4.86-6.33-7.25-9.74-5.52-7.86-21.73-30.53-15.69-34.19,4.28-2.59,9.54-2.21,12.23-1.77l-1.46-3-4-8.84-1.63-.19-9.13,2-15.7.48A15.71,15.71,0,0,0,296.16,344.19Z"/><path class="cls-11" d="M460.11,306.7l-6.45-3.31-15.19,22.66a7.74,7.74,0,0,0,5.24,5.8c4.42,1.24,6.9-.09,6.9-.09Z"/><path class="cls-5" d="M341.91,187.94a11.18,11.18,0,0,0,1.31,5.27c1.61,2.15,7,4.74,11.43,2.48,0,0,6.8,9.28,10.25,12,3.07,2.41,12.21,4.63,14.87,4.71h0a1.61,1.61,0,0,0,.67-.06c1-.55,11.44-12.79,12.62-15.89s2.05-19.19,1.73-25a12.52,12.52,0,0,0-.65-3.08c-2.1-6.59-9-16.65-15.1-16.56-7.24.11-14.79,11.12-16.84,15.22s-7,19.1-7,19.1-4.1-5.93-9.39-5.61C342.62,180.67,341.74,184.48,341.91,187.94Z"/><path class="cls-4" d="M326.29,280.89a37.68,37.68,0,0,0,1.93,4.88c3,6.49,8.42,16.4,13.32,25.17,5.31,9.49,10,17.62,10.16,18.58.38,2.12-4.51,37.41-4.51,37.41a105.44,105.44,0,0,0,41.08,4.65c23.09-1.94,35.26-7.58,35.26-7.58s.1-2.24.24-5.51c.27-6.74.69-17.8.69-22.52,0-6.63,1.16-28.67,1.16-28.67s2.88-29.19,2.88-34.14c0-12.32-15.59-40-15.59-40l-10.59-2.66-5.52-.12a9.33,9.33,0,0,1-1.08,4,44.53,44.53,0,0,1-3.19,5.26,2.93,2.93,0,0,1-.21,2.31c-1.37,2.68-1.44,5.82-3.21,8.34a3,3,0,0,1-5.45-.71c-.56-1.44-1.37-2.77-1.93-4.2a9.65,9.65,0,0,1-5.92-4.08,61.34,61.34,0,0,1-5.39-8.6,11.25,11.25,0,0,1-.89-2.88l-7.51-.15-9.36,3.49s-21.18,16.62-22.91,19.27a19.78,19.78,0,0,0-1.62,4.13C326.27,262.72,324.26,273.81,326.29,280.89Z"/><path class="cls-12" d="M351.7,329.52c.38,2.12-4.51,37.41-4.51,37.41a105.44,105.44,0,0,0,41.08,4.65c23.09-1.94,35.26-7.58,35.26-7.58s.1-2.24.24-5.51c-18,11.52-59,1.25-56.72-5.71,2.56-7.68,32.9-17.55,34-20.4s-38.39-4.46-43.62-12.33-5.13-34.28-5.13-34.28H328.22c3,6.49,8.42,16.4,13.32,25.17C346.85,320.43,351.52,328.56,351.7,329.52Z"/><path class="cls-11" d="M353.24,215.86s15.37,8.47,16.64,10,18,25.59,18,25.59l-2.35,5.67s-3-5.56-6.09-8.35-17-16.85-17-16.85-11.26,9.44-12.13,9.44.77-13,1.35-16.85S353.24,215.86,353.24,215.86Z"/><polygon class="cls-11" points="382.12 214.13 405.59 224.52 407.61 236.94 399.82 234.05 385.68 256.69 393.75 232.42 382.38 223.88 382.12 214.13"/><path class="cls-12" d="M357.42,273.92s-8.55,19.66-15.88,37c-6.42-11.48-13.78-24.92-15.25-30.05-2-7.08,0-18.18,1.84-24.34,3.51-3.69,10.78-7.87,19-3.41C358,259,357.42,273.92,357.42,273.92Z"/><path class="cls-4" d="M301.84,343.48c5.67.52,10.93-.35,16.05-5.14a40.29,40.29,0,0,0,7.55-10.25c7.58-13.87,32-54.48,32-54.48a29.9,29.9,0,0,0-.05-8.57c-.65-4.51-2.54-9.83-7.42-13.37-10-7.26-20.26.57-21.79,3.65,0,0-24.25,48.7-30.22,63.72a58.18,58.18,0,0,0-3.13,10.15c-.09.5-.17,1-.24,1.45C293.44,338.48,295.87,342.94,301.84,343.48Z"/><path class="cls-12" d="M302.06,331.93c5.17,2,11.06,4.44,15.83,6.41a40.29,40.29,0,0,0,7.55-10.25c7.58-13.87,32-54.48,32-54.48a29.9,29.9,0,0,0-.05-8.57c-.46.7-30.26,45.43-35.34,52.84C318.27,323.45,311.09,331.4,302.06,331.93Z"/><path class="cls-11" d="M294.33,325.13s5.33,5.91,12.52,6.42,17.83-2.11,17.83-2.11l-2.05,6.6s-6.8,9.63-18.22,8.47-12.58-5.65-12.19-8.08S294.33,325.13,294.33,325.13Z"/><path class="cls-13" d="M355.19,186.08l1.07,2.54s14.17-32.49,21.23-34.36c5.11-1.36,12.81,8.51,16.66,14.06-2.1-6.59-9-16.65-15.1-16.56-7.24.11-14.79,11.12-16.84,15.22S355.19,186.08,355.19,186.08Z"/><path class="cls-13" d="M341.91,187.94a11.18,11.18,0,0,0,1.31,5.27c1.61,2.15,7,4.74,11.43,2.48,0,0,6.8,9.28,10.25,12,3.07,2.41,12.21,4.63,14.87,4.71a96.69,96.69,0,0,1-11.39-4.74c-4-2.19-13.19-12.94-13.19-12.94s-6.7-.31-10.08-1.86C343.49,192.07,342.5,190,341.91,187.94Z"/><path class="cls-8" d="M408.86,534c2,6.91,3.65,12.5,3.65,12.5s-4.85,16.81-.87,42.77,11.9,59,11.9,59l3.85,16.4L445.64,689l6.4-4.41c-5-2.29-15.22-11.13-16.81-13.35-1.83-2.56-5.67-14.26-12.25-50.45s-2.46-75-2.46-75l-3-14.93H408Z"/><path class="cls-8" d="M321,689.06l11.13,1.63s1-1.7,3-5.84,6.22-25.83,7.44-34.31,14-42.33,19.6-57.11,4.75-30.64,4.9-33c.08-1.24,3.77-13.64,8-27.13l1.4-4.4-9.44,1.9-5.12,24.73s.36,23.89-5.85,41.08-16.54,51.23-18.33,61.07-5.44,24.48-6.9,26.3C329.94,685.16,324.74,687.48,321,689.06Z"/><path class="cls-14" d="M959.65,707c0,1.92-26.33,3.49-58.81,3.49S842,709,842,707s26.33-3.49,58.82-3.49S959.65,705.1,959.65,707Z"/><ellipse class="cls-4" cx="711.51" cy="734.7" rx="143.07" ry="11.93"/><path class="cls-14" d="M212.78,709.14H83.18s-43,1-25,7.05,156.26,3.57,182,3,52.87.39,51.76,1-7.13,4.09-30.3,4.09-42.06,9.46,10.3,10.62,104.69-.72,107.7-5.17-18.45-4.59-16.73-7.54,254.9,0,254.9,0,15.15,2,6.72,2.86-44.3-.28-47.82,4.68,38.39,8.67,123,7.66,95-11.72,75.21-14.6-17.81-10.52,14.68-10.23,68-.42,58-5.44-86.42-3-110.45-3.34-115,1.18-127.88-.59,24-13.07-109-13.47-183.92-3.58-176.93,6.92S321.77,709.14,212.78,709.14Z"/><rect class="cls-1" x="543.52" y="529.86" width="17.8" height="42.47"/><polygon class="cls-1" points="543.52 529.86 543.52 572.33 510.96 572.33 510.96 557.5 535.4 557.5 535.4 529.86 543.52 529.86"/><polygon class="cls-1" points="543.52 572.33 543.52 649.47 538.28 649.47 540.12 643.69 540.12 619.1 523.38 619.1 523.38 644.39 523.18 644.97 523.18 572.33 543.52 572.33"/><path class="cls-1" d="M607.51,715a17.57,17.57,0,1,1-7.6-33.41v8.76a17.57,17.57,0,0,0,7.6,24.65Z"/><path class="cls-1" d="M632.68,699.11a17.57,17.57,0,1,1-25.17-15.84,17.58,17.58,0,0,1,7.6-1.73A17.57,17.57,0,0,1,632.68,699.11Z"/><path class="cls-1" d="M612.22,670.08v11.7a17.15,17.15,0,0,0-4.71,1.49,17.68,17.68,0,0,0-7.6,7V672.58l-56.39-28.73V619.1s57.15,39.74,63.39,43.33S612.22,670.08,612.22,670.08Z"/><path class="cls-1" d="M459.19,711.83a17.57,17.57,0,1,1-7.6-33.41,17.25,17.25,0,0,1,2.89.24v4.79a17.57,17.57,0,0,0,4.71,28.38Z"/><path class="cls-1" d="M523.18,619.1v24.75l-56.39,28.73v5.84a17.44,17.44,0,0,0-7.6,1.73,17.69,17.69,0,0,0-4.71,3.3V670.08s-.94-4.06,5.31-7.65S523.18,619.1,523.18,619.1Z"/><path class="cls-1" d="M484.36,696a17.57,17.57,0,1,1-17.57-17.57A17.57,17.57,0,0,1,484.36,696Z"/><path class="cls-1" d="M534.38,619.1v24.59l-1.84,5.78-9.73,30.44-1.83-.08c-3.7.52-6.82,8.58-7,18.1h-9.08l5.54-16L523.18,645l.2-.58V619.1Z"/><polygon class="cls-1" points="540.12 619.1 540.12 643.69 538.28 649.47 528.48 680.14 522.81 679.91 532.54 649.47 534.38 643.69 534.38 619.1 540.12 619.1"/><path class="cls-1" d="M535.69,715.54l.24,0L520,714.91c-3.52-.15-6.19-7.34-6.07-16.59,0-.13,0-.26,0-.39.21-9.52,3.33-17.58,7-18.1l1.83.08,5.67.23,8.48.35c-3.75.53-6.9,8.81-7,18.49,0,.5,0,1,0,1.48,0,.14,0,.28,0,.42,0,.56,0,1.12.08,1.67q0,.38.06.75c0,.07,0,.15,0,.22s0,.3,0,.45.06.58.1.86l.09.68c0,.12,0,.24,0,.36.08.5.17,1,.27,1.45,0,.21.09.4.13.6s0,.09,0,.14a1.22,1.22,0,0,0,.06.26c0,.14.07.28.1.42l.18.64c.06.22.12.42.19.62l.15.43c.08.25.18.5.27.73s.14.34.22.51a3.31,3.31,0,0,0,.15.33c.07.16.15.32.23.47l0,.08.15.27.12.21a2.26,2.26,0,0,0,.13.2l.12.19a6.42,6.42,0,0,0,.91,1.1.75.75,0,0,0,.16.15,3.46,3.46,0,0,0,.83.58,1.73,1.73,0,0,0,.31.14l.06,0a1.21,1.21,0,0,0,.25.08Z"/><path class="cls-1" d="M543.51,697.05c-.13,9.68-3.28,18-7,18.49a2.44,2.44,0,0,1-.54,0l-.24,0-.24,0-.25-.08-.06,0a1.73,1.73,0,0,1-.31-.14,3.46,3.46,0,0,1-.83-.58.75.75,0,0,1-.16-.15,6.42,6.42,0,0,1-.91-1.1l-.12-.19a2.26,2.26,0,0,1-.13-.2l-.12-.21-.15-.27,0-.08c-.08-.15-.16-.31-.23-.47a3.31,3.31,0,0,1-.15-.33c-.08-.17-.15-.34-.22-.51s-.19-.48-.27-.73l-.15-.43c-.06-.2-.13-.4-.19-.62l-.18-.64c0-.14-.07-.28-.1-.42a1.22,1.22,0,0,1-.06-.26s0-.09,0-.14-.09-.39-.13-.6c-.1-.46-.19-1-.27-1.45,0-.12,0-.24,0-.36l-.09-.68c0-.28-.07-.57-.1-.86s0-.3,0-.45,0-.15,0-.22q0-.37-.06-.75c0-.55-.07-1.11-.08-1.67,0-.14,0-.28,0-.42,0-.49,0-1,0-1.48.13-9.68,3.28-18,7-18.49S543.65,687.37,543.51,697.05Z"/><path class="cls-1" d="M506.41,715.57l-16-.66c-3.52-.15-6.2-7.34-6.07-16.59.14-9.68,3.29-18,7-18.49l16,.66c-3.75.53-6.9,8.81-7,18.49C500.21,708.23,502.89,715.42,506.41,715.57Z"/><path class="cls-1" d="M513.91,697.93c-.3,9.3-3.38,17.09-7,17.61a2.44,2.44,0,0,1-.54,0h-.16a.76.76,0,0,1-.16,0l-.16,0-.25-.08-.06,0a1.73,1.73,0,0,1-.31-.14,1.83,1.83,0,0,1-.24-.13l-.23-.15,0,0a.05.05,0,0,1,0,0l-.15-.11-.14-.12-.28-.27a3.85,3.85,0,0,1-.27-.3l-.14-.16a2.35,2.35,0,0,1-.19-.25l-.2-.29-.13-.19-.12-.2-.12-.21a12.32,12.32,0,0,1-.57-1.15c-.08-.17-.15-.34-.22-.51l-.21-.55h0c-.05-.15-.1-.3-.16-.45s-.2-.62-.29-.94l-.09-.35c-.06-.21-.12-.43-.17-.65s0-.2-.07-.3-.11-.47-.15-.7l-.12-.58c0-.26-.08-.52-.13-.77s0-.24-.05-.36-.05-.33-.07-.49v0c0-.16-.05-.31-.06-.47a.43.43,0,0,1,0,0c0-.15,0-.31-.05-.47l-.06-.57h0c0-.17,0-.35,0-.53,0-.65-.09-1.32-.1-2,0-.14,0-.27,0-.41,0-.49,0-1,0-1.48.14-9.68,3.29-18,7-18.49a3.36,3.36,0,0,1,3,1.43l-5.54,16Z"/><rect class="cls-15" x="543.52" y="529.86" width="17.8" height="42.47"/><polygon class="cls-15" points="543.52 529.86 543.52 572.33 510.96 572.33 510.96 557.5 535.4 557.5 535.4 529.86 543.52 529.86"/><polygon class="cls-15" points="543.52 572.33 543.52 649.47 538.28 649.47 540.12 643.69 540.12 619.1 523.38 619.1 523.38 644.39 523.18 644.97 523.18 572.33 543.52 572.33"/><path class="cls-15" d="M607.51,715a17.57,17.57,0,1,1-7.6-33.41v8.76a17.57,17.57,0,0,0,7.6,24.65Z"/><path class="cls-16" d="M632.68,699.11a17.57,17.57,0,1,1-25.17-15.84,17.58,17.58,0,0,1,7.6-1.73A17.57,17.57,0,0,1,632.68,699.11Z"/><path class="cls-15" d="M612.22,670.08v11.7a17.15,17.15,0,0,0-4.71,1.49,17.68,17.68,0,0,0-7.6,7V672.58l-56.39-28.73V619.1s57.15,39.74,63.39,43.33S612.22,670.08,612.22,670.08Z"/><path class="cls-15" d="M459.19,711.83a17.57,17.57,0,1,1-7.6-33.41,17.25,17.25,0,0,1,2.89.24v4.79a17.57,17.57,0,0,0,4.71,28.38Z"/><path class="cls-15" d="M523.18,619.1v24.75l-56.39,28.73v5.84a17.44,17.44,0,0,0-7.6,1.73,17.69,17.69,0,0,0-4.71,3.3V670.08s-.94-4.06,5.31-7.65S523.18,619.1,523.18,619.1Z"/><path class="cls-16" d="M484.36,696a17.57,17.57,0,1,1-17.57-17.57A17.57,17.57,0,0,1,484.36,696Z"/><path class="cls-15" d="M534.38,619.1v24.59l-1.84,5.78-9.73,30.44-1.83-.08c-3.7.52-6.82,8.58-7,18.1h-9.08l5.54-16L523.18,645l.2-.58V619.1Z"/><polygon class="cls-15" points="540.12 619.1 540.12 643.69 538.28 649.47 528.48 680.14 522.81 679.91 532.54 649.47 534.38 643.69 534.38 619.1 540.12 619.1"/><path class="cls-15" d="M535.69,715.54l.24,0L520,714.91c-3.52-.15-6.19-7.34-6.07-16.59,0-.13,0-.26,0-.39.21-9.52,3.33-17.58,7-18.1l1.83.08,5.67.23,8.48.35c-3.75.53-6.9,8.81-7,18.49,0,.5,0,1,0,1.48,0,.14,0,.28,0,.42,0,.56,0,1.12.08,1.67q0,.38.06.75c0,.07,0,.15,0,.22s0,.3,0,.45.06.58.1.86l.09.68c0,.12,0,.24,0,.36.08.5.17,1,.27,1.45,0,.21.09.4.13.6s0,.09,0,.14a1.22,1.22,0,0,0,.06.26c0,.14.07.28.1.42l.18.64c.06.22.12.42.19.62l.15.43c.08.25.18.5.27.73s.14.34.22.51a3.31,3.31,0,0,0,.15.33c.07.16.15.32.23.47l0,.08.15.27.12.21a2.26,2.26,0,0,0,.13.2l.12.19a6.42,6.42,0,0,0,.91,1.1.75.75,0,0,0,.16.15,3.46,3.46,0,0,0,.83.58,1.73,1.73,0,0,0,.31.14l.06,0a1.21,1.21,0,0,0,.25.08Z"/><path class="cls-15" d="M543.51,697.05c-.13,9.68-3.28,18-7,18.49a2.44,2.44,0,0,1-.54,0l-.24,0-.24,0-.25-.08-.06,0a1.73,1.73,0,0,1-.31-.14,3.46,3.46,0,0,1-.83-.58.75.75,0,0,1-.16-.15,6.42,6.42,0,0,1-.91-1.1l-.12-.19a2.26,2.26,0,0,1-.13-.2l-.12-.21-.15-.27,0-.08c-.08-.15-.16-.31-.23-.47a3.31,3.31,0,0,1-.15-.33c-.08-.17-.15-.34-.22-.51s-.19-.48-.27-.73l-.15-.43c-.06-.2-.13-.4-.19-.62l-.18-.64c0-.14-.07-.28-.1-.42a1.22,1.22,0,0,1-.06-.26s0-.09,0-.14-.09-.39-.13-.6c-.1-.46-.19-1-.27-1.45,0-.12,0-.24,0-.36l-.09-.68c0-.28-.07-.57-.1-.86s0-.3,0-.45,0-.15,0-.22q0-.37-.06-.75c0-.55-.07-1.11-.08-1.67,0-.14,0-.28,0-.42,0-.49,0-1,0-1.48.13-9.68,3.28-18,7-18.49S543.65,687.37,543.51,697.05Z"/><path class="cls-15" d="M506.41,715.57l-16-.66c-3.52-.15-6.2-7.34-6.07-16.59.14-9.68,3.29-18,7-18.49l16,.66c-3.75.53-6.9,8.81-7,18.49C500.21,708.23,502.89,715.42,506.41,715.57Z"/><path class="cls-15" d="M513.91,697.93c-.3,9.3-3.38,17.09-7,17.61a2.44,2.44,0,0,1-.54,0h-.16a.76.76,0,0,1-.16,0l-.16,0-.25-.08-.06,0a1.73,1.73,0,0,1-.31-.14,1.83,1.83,0,0,1-.24-.13l-.23-.15,0,0a.05.05,0,0,1,0,0l-.15-.11-.14-.12-.28-.27a3.85,3.85,0,0,1-.27-.3l-.14-.16a2.35,2.35,0,0,1-.19-.25l-.2-.29-.13-.19-.12-.2-.12-.21a12.32,12.32,0,0,1-.57-1.15c-.08-.17-.15-.34-.22-.51l-.21-.55h0c-.05-.15-.1-.3-.16-.45s-.2-.62-.29-.94l-.09-.35c-.06-.21-.12-.43-.17-.65s0-.2-.07-.3-.11-.47-.15-.7l-.12-.58c0-.26-.08-.52-.13-.77s0-.24-.05-.36-.05-.33-.07-.49v0c0-.16-.05-.31-.06-.47a.43.43,0,0,1,0,0c0-.15,0-.31-.05-.47l-.06-.57h0c0-.17,0-.35,0-.53,0-.65-.09-1.32-.1-2,0-.14,0-.27,0-.41,0-.49,0-1,0-1.48.14-9.68,3.29-18,7-18.49a3.36,3.36,0,0,1,3,1.43l-5.54,16Z"/><path class="cls-17" d="M591,553.36c-6,3.13-44.09,4.45-44.09,4.45s-29.41.2-56.3-1c-17.44-.75-33.82-2.09-40.4-4.42-16.71-5.93-11.74-29.67-3.91-36s20.62-.85,53.15,2.59,84.08-1.25,89.06-2.27a16,16,0,0,1,8.16.48c3.74,1.32,7.22,4.49,8.26,11.16C606.74,540.25,597,550.24,591,553.36Z"/><path class="cls-18" d="M596.65,517.22c-5.41,3.65-16,8.7-33.31,8.85-27.16.24-59.51-1.19-69.55-3.31S472,534,477.65,547.59c1.91,4.6,6.3,7.45,12.94,9.25-17.44-.75-33.82-2.09-40.4-4.42-16.71-5.93-11.74-29.67-3.91-36s20.62-.85,53.15,2.59,84.08-1.25,89.06-2.27A16,16,0,0,1,596.65,517.22Z"/><path class="cls-19" d="M544.18,272.92l-41.81,42.79s-10.75-18.13-17.57-34.07A88.37,88.37,0,0,1,480,268.11c-3.93-16.52,10-29.91,10-29.91s72.46-3.58,73.77,0S544.18,272.92,544.18,272.92Z"/><path class="cls-11" d="M544.18,272.92l-41.81,42.79s-10.75-18.13-17.57-34.07c1.27-18,9.55-35.61,9.55-35.61l44.6,2,24.87-9.79C565.13,241.77,544.18,272.92,544.18,272.92Z"/><path class="cls-7" d="M531.28,680.66S520.93,697.8,515,707.56s-14.57,16.42-20.09,15-9.85-8.93-5.52-17.24,14-25.35,15.37-26.6,17.73-9.35,17.73-9.35S531.77,677.44,531.28,680.66Z"/><path class="cls-7" d="M523,687.4s2.4.92,2.12,5.19-2.91,27.42-1.7,29.79,8.28,8.54,13.6-2.47,15.76-30.61,16.9-34.7-2-13.24-6-14.91-15.44-4.5-15.44-4.5Z"/><path class="cls-11" d="M554,483.79s-1.49,1.91-4.06,5.16l-.16.2c-1.73,2.19-3.93,5-6.49,8.15s-5.2,6.51-8.19,10.19c-2.17,2.66-4.44,5.46-6.79,8.32l-3.83,4.63L520,525.82c-10.22,12.21-21,24.59-29.52,33.27-23.38,23.84-51.74,47.19-67.62,32.17s8-58,19.39-76.7c2.24-3.65,5.89-9,10.35-15.4l1.46-2.07c1.91-2.71,4-5.55,6.08-8.5,2.42-3.35,4.95-6.82,7.53-10.33,2.06-2.8,4.15-5.64,6.25-8.46,4.68-6.28,9.37-12.49,13.73-18.18l2.58-3.36c8.92-11.56,16.1-20.42,18.34-22.36C514.18,421,529,416,543,426.84a41.62,41.62,0,0,1,6.44,6.29c4.86,5.83,7.13,12.95,8,20C559.21,468.65,554,483.79,554,483.79Z"/><path class="cls-11" d="M528.73,664.16,508,684.73s-18.9-17.36-39.22-37.88c-18.38-18.58-37.93-39.74-45.65-53-16.26-27.84,6.74-47.77,13.4-49.08,21.71-4.27,43.37,51.42,53.41,64.37.63.81,1.34,1.73,2.11,2.76C503.51,627.23,528.73,664.16,528.73,664.16Z"/><path class="cls-7" d="M528.73,663.84,508,684.41s-18.9-17.36-39.22-37.88l23.27-34.92C503.51,626.91,528.73,663.84,528.73,663.84Z"/><path class="cls-11" d="M612.06,589.76c-16.44,14.6-42.33-10.86-63.37-36.57-6.08-7.43-13.35-17.3-20.62-27.58-1.21-1.72-2.43-3.44-3.63-5.17l-3.39-4.87q-2.92-4.23-5.72-8.36c-2.41-3.53-4.73-7-6.91-10.21q-1.86-2.78-3.57-5.36l-2-3c-6.36-9.59-10.55-16.11-10.55-16.11a88,88,0,0,1-2.22-20.82c0-1.12.05-2.25.12-3.41a53.48,53.48,0,0,1,4.17-18.52,35.23,35.23,0,0,1,5.79-9.08c16.43-18.44,34.22-11.48,40.16-5.31,2.75,2.87,13.42,19.24,25,37.92,2.47,4,5,8.06,7.47,12.15,1.74,2.85,3.47,5.71,5.17,8.53,2.15,3.58,4.24,7.09,6.23,10.46,1,1.61,1.88,3.2,2.78,4.73q1.14,2,2.24,3.86c4,7,7.32,12.95,9.29,16.92C608.3,529.71,628.49,575.18,612.06,589.76Z"/><path class="cls-7" d="M587,489.14c-12.56-.05-25.85-.07-37.24,0-8.31.06-15.62.18-20.9.37-6.34.23-14.8,1-24,2.12-18.06,2.13-39,5.36-52.29,7.52l1.46-2.07c1.91-2.71,4-5.55,6.08-8.5,2.42-3.35,4.95-6.82,7.53-10.33,2.06-2.8,4.15-5.64,6.25-8.46,4.68-6.28,9.37-12.49,13.73-18.18l2.46.05,67.32,1.43,7.94.17c2.47,4,5,8.06,7.47,12.15,1.74,2.85,3.47,5.71,5.17,8.53,2.15,3.58,4.24,7.09,6.23,10.46C585.16,486,586.08,487.61,587,489.14Z"/><path class="cls-11" d="M601.53,542.8c6.39,1.54,27.78,22.76,10.91,51.09s-77,92.93-77,92.93l-23.05-21.2S537,621,547.22,607.85,580.73,537.79,601.53,542.8Z"/><path class="cls-20" d="M601.17,441.33c-4.45,6.75-22.8,21.22-26.13,23.83l0,.48h-115s-21.75-16.8-26.66-24.23-6.43-9.7-3.36-25.86c.31-1.64.73-3.84,1.25-6.47a.65.65,0,0,0,0-.11s0-.06,0-.09c2.86-14.71,8.39-42.52,12.49-61.55,2.4-11.12,4.31-19.25,4.91-20,.93-1.13,5.66-3.86,10.16-6.32s8.81-4.63,8.84-4.66l12.51-.23H481l19.09-.79,0,.44,2.25-.05,14.66-.27v0h1.07v0l10.74.2,2.2,0,.06-.74,20.83.86,0,.27,14.91.26.05-.06.12.07h.43v.22c3,1.52,16.79,8.68,18.44,10.7a9,9,0,0,1,.74,2.08c2.53,8.86,9.55,43.4,14.2,66.88,1.66,8.39,3,15.37,3.75,19.25C607.6,431.64,606.06,433.9,601.17,441.33Z"/><path class="cls-21" d="M502.37,315.71v7.06s-29.1-3.27-39.44,2.12c-6.44,3.35-14.18,14.5-19.11,22.44,2.4-11.12,4.31-19.25,4.91-20,.93-1.13,5.66-3.86,10.16-6.32s8.81-4.63,8.84-4.66l12.51-.23H481l19.09-.79,0,.44Z"/><path class="cls-21" d="M586.59,329.35a91.81,91.81,0,0,0-19.31-5.86c-10.54-1.89-38.44,0-38.44,0v-7.85l2.2,0,.06-.74,20.83.86,0,.27,14.91.26.05-.06.12.07h.43v.22c3,1.52,16.79,8.68,18.44,10.7A9,9,0,0,1,586.59,329.35Z"/><path class="cls-22" d="M601.17,441.33c-4.45,6.75-22.8,21.22-26.13,23.83l0,.48H555.15V441.09s18.88-21.18,18.29-13.8-1,22.14,4.37,24.49,17.82-10.06,22.06-21c2-5,1.73-20,.92-34.59,1.66,8.39,3,15.37,3.75,19.25C607.6,431.64,606.06,433.9,601.17,441.33Z"/><path class="cls-22" d="M476.38,454.16v11.48H460.07s-21.75-16.8-26.66-24.23-6.43-9.7-3.36-25.86c.31-1.64.73-3.84,1.25-6.47-.24,1.8-1.78,15.43,6.13,24.81,4.38,5.2,14.64,10.44,23.54,14.3l.86.37C469.75,452,476.38,454.16,476.38,454.16Z"/><path class="cls-22" d="M573.31,366.23l1.36,29.3-5.42,13.68-51.92,3.51-51.91-3.51L460,395.53l1.36-29.3s-10.17,32-9.68,35.22S460,424.82,460,424.82H574.67s7.83-20.14,8.32-23.37S573.31,366.23,573.31,366.23Z"/><path class="cls-13" d="M535.21,300.65c-.25,7.42-1.32,20.4-5.55,28.78-6.2,12.28-13.48,12.65-14,12.65s-7.84-.37-14.05-12.65c-3.46-6.85-4.8-16.78-5.31-24.23.33-.34-.27-12.6,0-12.77,2.57-1.61,23.32,6.94,30.6,6.72A21.75,21.75,0,0,1,535.21,300.65Z"/><polygon class="cls-23" points="581.09 396.65 580.88 397.98 571.26 456.56 571.03 457.93 463.63 457.93 463.63 457.86 463.2 455.28 454.05 399.56 453.79 397.98 453.57 396.65 581.09 396.65"/><rect class="cls-16" x="463.63" y="457.93" width="107.27" height="5.44"/><polygon class="cls-1" points="453.57 396.65 456.69 394.66 578.08 394.66 581.09 396.65 453.57 396.65"/><path class="cls-16" d="M580.88,398l-9.62,58.58-107.64,1.3-.42-2.58H558s4.86-4.07,4.86-5.13.67-36.08-8.72-39.26c-8.25-2.8-82.34-9.7-100.13-11.33l-.26-1.58Z"/><path class="cls-22" d="M494.4,328.66s6.49,19.28,22.26,19.28,19.08-18.59,19.08-18.59-7.7,18.92-19.41,16.57A31.33,31.33,0,0,1,494.4,328.66Z"/><path class="cls-5" d="M551.71,298.93c-4.91,14.29-19,21.68-19,21.68s-14.65-5.19-20.32-9.45-16.18-18.73-16.18-18.73,1.13-4,2.94-9.49h0c3.69-11.11,10.23-28.05,15.88-28.46,8.42-.62,30,7.34,30,7.34s.75,1.47,1.78,3.9C549.87,272.85,555.38,288.27,551.71,298.93Z"/><path class="cls-5" d="M502.37,284.26s-13.17-6.71-15.79,1.42,15.79,7.8,15.79,7.8Z"/><path class="cls-13" d="M546.83,265.71c-5.48-2.58-23.63-10.61-29.54-6.59-6.93,4.7-17.93,23.52-18.1,23.81,3.69-11.11,10.23-28.05,15.88-28.46,8.42-.62,30,7.34,30,7.34S545.8,263.28,546.83,265.71Z"/><rect class="cls-1" x="200.99" y="532.78" width="17.35" height="41.39"/><polygon class="cls-1" points="218.34 532.78 218.34 574.17 250.07 574.17 250.07 559.72 226.25 559.72 226.25 532.78 218.34 532.78"/><polygon class="cls-1" points="218.34 574.17 218.34 649.35 223.45 649.35 221.65 643.72 221.65 619.75 237.97 619.75 237.97 644.4 238.16 644.96 238.16 574.17 218.34 574.17"/><path class="cls-1" d="M156,713.17a17.12,17.12,0,1,0,7.41-32.56v8.53a17.12,17.12,0,0,1-7.41,24Z"/><path class="cls-1" d="M131.44,697.73a17.13,17.13,0,1,0,19.94-16.89,17.5,17.5,0,0,0-2.82-.23A17.12,17.12,0,0,0,131.44,697.73Z"/><path class="cls-1" d="M151.38,669.44v11.4a17,17,0,0,1,4.59,1.45,17.21,17.21,0,0,1,7.41,6.85V671.87l55-28V619.75s-55.7,38.73-61.79,42.23S151.38,669.44,151.38,669.44Z"/><path class="cls-1" d="M300.53,710.13a17.12,17.12,0,1,0,7.41-32.56,17.5,17.5,0,0,0-2.82.23v4.67a17.14,17.14,0,0,1-4.59,27.66Z"/><path class="cls-1" d="M238.16,619.75v24.12l55,28v5.7a17.1,17.1,0,0,1,12,4.9v-13s.91-4-5.17-7.46S238.16,619.75,238.16,619.75Z"/><path class="cls-1" d="M276,694.69a17.13,17.13,0,1,0,17.12-17.12A17.13,17.13,0,0,0,276,694.69Z"/><path class="cls-1" d="M227.24,619.75v24l1.8,5.63L238.52,679l1.78-.08c3.61.51,6.65,8.37,6.86,17.64H256L250.61,681l-12.45-36-.19-.55V619.75Z"/><polygon class="cls-1" points="221.65 619.75 221.65 643.72 223.45 649.35 233 679.24 238.52 679.02 229.04 649.35 227.24 643.72 227.24 619.75 221.65 619.75"/><path class="cls-1" d="M226,713.74l-.23,0,15.51-.64c3.43-.14,6-7.15,5.92-16.17,0-.12,0-.25,0-.38-.21-9.27-3.25-17.13-6.86-17.64l-1.78.08-5.52.22-8.27.34c3.66.52,6.73,8.59,6.86,18,0,.49,0,1,0,1.45,0,.14,0,.27,0,.41,0,.55,0,1.09-.07,1.62,0,.25,0,.49-.06.73a2,2,0,0,1,0,.23c0,.14,0,.29,0,.43s-.06.56-.1.83-.06.45-.09.67,0,.23-.05.35c-.08.49-.16,1-.26,1.42,0,.19-.08.39-.13.58l0,.13-.06.26c0,.13-.07.27-.1.41l-.18.63-.18.6-.15.42c-.08.24-.17.48-.26.71l-.21.49-.15.33-.22.45a.22.22,0,0,1-.05.08,2.15,2.15,0,0,1-.14.26l-.12.21-.12.2-.12.18a7.09,7.09,0,0,1-.88,1.08l-.16.14a3.86,3.86,0,0,1-.81.57l-.3.13-.06,0-.25.08Z"/><path class="cls-1" d="M218.34,695.72c.13,9.44,3.2,17.51,6.87,18a3.09,3.09,0,0,0,.53,0l.23,0,.23,0,.25-.08.06,0,.3-.13a3.86,3.86,0,0,0,.81-.57,1.07,1.07,0,0,0,.16-.14,7.09,7.09,0,0,0,.88-1.08l.12-.18.12-.2.12-.21a2.15,2.15,0,0,0,.14-.26.22.22,0,0,0,.05-.08l.22-.45.15-.33.21-.49c.09-.23.18-.47.26-.71l.15-.42.18-.6.18-.63c0-.14.07-.28.1-.41l.06-.26,0-.13c.05-.19.09-.39.13-.58.1-.46.18-.93.26-1.42,0-.12,0-.23.05-.35s.07-.44.09-.67.07-.55.1-.83,0-.29,0-.43a2,2,0,0,0,0-.23c0-.24,0-.48.06-.73,0-.53.06-1.07.07-1.62,0-.14,0-.27,0-.41,0-.48,0-1,0-1.45-.13-9.43-3.2-17.5-6.86-18S218.21,686.29,218.34,695.72Z"/><path class="cls-1" d="M254.51,713.77l15.58-.64c3.42-.14,6-7.15,5.91-16.17-.13-9.43-3.21-17.5-6.86-18l-15.58.64c3.66.52,6.73,8.59,6.86,18C260.55,706.62,257.94,713.63,254.51,713.77Z"/><path class="cls-1" d="M247.2,696.58c.29,9.06,3.29,16.66,6.84,17.17a3.13,3.13,0,0,0,.53,0h.15l.16,0,.15,0,.25-.08.06,0,.3-.13.24-.13.21-.15h0l.05,0,.14-.11.14-.11a3.44,3.44,0,0,0,.27-.27l.27-.29.13-.16.18-.23.2-.29.12-.18.12-.2.12-.21a10.62,10.62,0,0,0,.56-1.12l.21-.49.21-.54h0l.15-.44c.1-.29.19-.6.28-.91,0-.11.06-.23.1-.34s.11-.42.16-.64l.06-.29c.06-.23.11-.45.15-.69s.08-.37.11-.56.09-.5.13-.75,0-.23,0-.35.05-.32.07-.48,0,0,0,0,0-.3,0-.45,0,0,0,0,0-.3,0-.46,0-.37.05-.56h0c0-.17,0-.35.05-.52.05-.63.08-1.29.1-1.95,0-.14,0-.27,0-.4,0-.48,0-1,0-1.45-.13-9.43-3.2-17.5-6.86-18a3.27,3.27,0,0,0-2.95,1.4l5.39,15.6Z"/><polygon class="cls-17" points="199.46 400.38 198.35 432.64 206.48 453.79 198.35 453.79 190.64 432.64 190.64 400.38 199.46 400.38"/><rect class="cls-16" x="165.38" y="400.38" width="17.35" height="32.26"/><rect class="cls-16" x="182.73" y="400.38" width="7.91" height="32.26"/><polygon class="cls-15" points="165.38 432.64 200.99 532.78 218.34 532.78 182.73 432.64 165.38 432.64"/><polygon class="cls-16" points="182.73 432.64 218.34 532.78 226.25 532.78 190.64 432.64 182.73 432.64"/><rect class="cls-15" x="200.99" y="532.78" width="17.35" height="41.39"/><polygon class="cls-16" points="218.34 532.78 218.34 574.17 250.07 574.17 250.07 559.72 226.25 559.72 226.25 532.78 218.34 532.78"/><polygon class="cls-15" points="218.34 574.17 218.34 649.35 223.45 649.35 221.65 643.72 221.65 619.75 237.97 619.75 237.97 644.4 238.16 644.96 238.16 574.17 218.34 574.17"/><path class="cls-15" d="M156,713.17a17.12,17.12,0,1,0,7.41-32.56v8.53a17.12,17.12,0,0,1-7.41,24Z"/><path class="cls-16" d="M131.44,697.73a17.13,17.13,0,1,0,19.94-16.89,17.5,17.5,0,0,0-2.82-.23A17.12,17.12,0,0,0,131.44,697.73Z"/><path class="cls-15" d="M151.38,669.44v11.4a17,17,0,0,1,4.59,1.45,17.21,17.21,0,0,1,7.41,6.85V671.87l55-28V619.75s-55.7,38.73-61.79,42.23S151.38,669.44,151.38,669.44Z"/><path class="cls-15" d="M300.53,710.13a17.12,17.12,0,1,0,7.41-32.56,17.5,17.5,0,0,0-2.82.23v4.67a17.14,17.14,0,0,1-4.59,27.66Z"/><path class="cls-15" d="M238.16,619.75v24.12l55,28v5.7a17.1,17.1,0,0,1,12,4.9v-13s.91-4-5.17-7.46S238.16,619.75,238.16,619.75Z"/><path class="cls-16" d="M276,694.69a17.13,17.13,0,1,0,17.12-17.12A17.13,17.13,0,0,0,276,694.69Z"/><path class="cls-16" d="M227.24,619.75v24l1.8,5.63L238.52,679l1.78-.08c3.61.51,6.65,8.37,6.86,17.64H256L250.61,681l-12.45-36-.19-.55V619.75Z"/><polygon class="cls-15" points="221.65 619.75 221.65 643.72 223.45 649.35 233 679.24 238.52 679.02 229.04 649.35 227.24 643.72 227.24 619.75 221.65 619.75"/><path class="cls-16" d="M226,713.74l-.23,0,15.51-.64c3.43-.14,6-7.15,5.92-16.17,0-.12,0-.25,0-.38-.21-9.27-3.25-17.13-6.86-17.64l-1.78.08-5.52.22-8.27.34c3.66.52,6.73,8.59,6.86,18,0,.49,0,1,0,1.45,0,.14,0,.27,0,.41,0,.55,0,1.09-.07,1.62,0,.25,0,.49-.06.73a2,2,0,0,1,0,.23c0,.14,0,.29,0,.43s-.06.56-.1.83-.06.45-.09.67,0,.23-.05.35c-.08.49-.16,1-.26,1.42,0,.19-.08.39-.13.58l0,.13-.06.26c0,.13-.07.27-.1.41l-.18.63-.18.6-.15.42c-.08.24-.17.48-.26.71l-.21.49-.15.33-.22.45a.22.22,0,0,1-.05.08,2.15,2.15,0,0,1-.14.26l-.12.21-.12.2-.12.18a7.09,7.09,0,0,1-.88,1.08l-.16.14a3.86,3.86,0,0,1-.81.57l-.3.13-.06,0-.25.08Z"/><path class="cls-15" d="M218.34,695.72c.13,9.44,3.2,17.51,6.87,18a3.09,3.09,0,0,0,.53,0l.23,0,.23,0,.25-.08.06,0,.3-.13a3.86,3.86,0,0,0,.81-.57,1.07,1.07,0,0,0,.16-.14,7.09,7.09,0,0,0,.88-1.08l.12-.18.12-.2.12-.21a2.15,2.15,0,0,0,.14-.26.22.22,0,0,0,.05-.08l.22-.45.15-.33.21-.49c.09-.23.18-.47.26-.71l.15-.42.18-.6.18-.63c0-.14.07-.28.1-.41l.06-.26,0-.13c.05-.19.09-.39.13-.58.1-.46.18-.93.26-1.42,0-.12,0-.23.05-.35s.07-.44.09-.67.07-.55.1-.83,0-.29,0-.43a2,2,0,0,0,0-.23c0-.24,0-.48.06-.73,0-.53.06-1.07.07-1.62,0-.14,0-.27,0-.41,0-.48,0-1,0-1.45-.13-9.43-3.2-17.5-6.86-18S218.21,686.29,218.34,695.72Z"/><path class="cls-15" d="M254.51,713.77l15.58-.64c3.42-.14,6-7.15,5.91-16.17-.13-9.43-3.21-17.5-6.86-18l-15.58.64c3.66.52,6.73,8.59,6.86,18C260.55,706.62,257.94,713.63,254.51,713.77Z"/><path class="cls-15" d="M247.2,696.58c.29,9.06,3.29,16.66,6.84,17.17a3.13,3.13,0,0,0,.53,0h.15l.16,0,.15,0,.25-.08.06,0,.3-.13.24-.13.21-.15h0l.05,0,.14-.11.14-.11a3.44,3.44,0,0,0,.27-.27l.27-.29.13-.16.18-.23.2-.29.12-.18.12-.2.12-.21a10.62,10.62,0,0,0,.56-1.12l.21-.49.21-.54h0l.15-.44c.1-.29.19-.6.28-.91,0-.11.06-.23.1-.34s.11-.42.16-.64l.06-.29c.06-.23.11-.45.15-.69s.08-.37.11-.56.09-.5.13-.75,0-.23,0-.35.05-.32.07-.48,0,0,0,0,0-.3,0-.45,0,0,0,0,0-.3,0-.46,0-.37.05-.56h0c0-.17,0-.35.05-.52.05-.63.08-1.29.1-1.95,0-.14,0-.27,0-.4,0-.48,0-1,0-1.45-.13-9.43-3.2-17.5-6.86-18a3.27,3.27,0,0,0-2.95,1.4l5.39,15.6Z"/><path class="cls-18" d="M164.93,562.61c5.88,3,43,4.33,43,4.33s28.66.2,54.87-.94c17-.74,33-2,39.37-4.31,16.29-5.78,11.44-28.92,3.82-35.09s-20.1-.83-51.81,2.52-81.94-1.21-86.8-2.2a15.54,15.54,0,0,0-7.95.46c-3.64,1.29-7,4.37-8.05,10.87C149.57,549.82,159,559.56,164.93,562.61Z"/><path class="cls-17" d="M159.4,527.38c5.28,3.56,15.61,8.48,32.46,8.62,26.48.24,58-1.15,67.79-3.22s21.27,10.91,15.74,24.2c-1.87,4.49-6.15,7.26-12.62,9,17-.74,33-2,39.37-4.31,16.29-5.78,11.44-28.92,3.82-35.09s-20.1-.83-51.81,2.52-81.94-1.21-86.8-2.2A15.54,15.54,0,0,0,159.4,527.38Z"/><path class="cls-17" d="M154.26,453.79h86.27a10.42,10.42,0,0,0,10.55-12.33l-7.51-51.93a14.74,14.74,0,0,0-14.11-12.34H143.19c-6.81,0-11.54,5.52-10.55,12.34l7.51,51.93A14.74,14.74,0,0,0,154.26,453.79Z"/><path class="cls-18" d="M170.73,453.79h74.41c6.81,0,11.53-5.52,10.55-12.33l-7.51-51.93a14.74,14.74,0,0,0-14.12-12.34h-74.4c-6.81,0-11.54,5.52-10.55,12.34l7.5,51.93A14.76,14.76,0,0,0,170.73,453.79Z"/><path class="cls-13" d="M317.25,544.28,267.9,529.61s-5.74-7.49,0-19.33,28.89-9.51,40.73-4.13,30.9,18.27,32.39,20.7S317.25,544.28,317.25,544.28Z"/><path class="cls-8" d="M276.83,359c-5.14,0-16.82,6.51-13.53,24.7s16.62,57.42,19.4,61.68,10.21,4.08,13.26-.44.61-25.23-.2-36.38S288,359.06,276.83,359Z"/><path class="cls-10" d="M308.46,313.88c-.56,2.62-3.22,9.76-6.07,17-3.76,9.61-7.85,19.48-7.85,19.48s-4.32,6.49-9.67,9.75c0,0,3-6.19,5.91-13.89s.06-28.82.06-28.82L262.93,334.2l-6.26,23-9.74-6-5.81-3.56s-5.28-.66-5-9.8c0-1.61.08-2.94.11-4l.15-5.09a17.8,17.8,0,0,1-2.79-10.37,65.4,65.4,0,0,1,1.17-11.72s-8.5-16.24-9-20.75a4.44,4.44,0,0,1,.57-2.34c2.55-5.2,12.6-13.51,15.83-14.91,3.77-1.64,16.25.54,20.56,4.39s7.63,11.41,7.63,11.41,28,9.94,29.64,12C300,296.43,309.76,307.81,308.46,313.88Z"/><path class="cls-9" d="M290,307.11,262.93,334.2l-16,17.05-5.81-3.56s-5.28-.66-5-9.8c0-1.61.08-2.94.11-4,1.22-1.39,2.28-2.93,2.34-4.18.16-3.07,12.85-9.86,12.85-9.86s9.35-20.28,22.48-23.35S290,307.11,290,307.11Z"/><polygon class="cls-5" points="268.56 367.3 267.03 383.19 243.26 352.44 246.15 336.1 247.73 327.17 267.59 339.59 266.84 353.44 266.94 354.24 268.56 367.3"/><path class="cls-13" d="M266.84,353.44l.1.8a3.28,3.28,0,0,1-.52.27c-1.16.31-12.16-5.14-15.08-8.85-1.55-2-3.6-6.1-5.19-9.56l1.58-8.93,19.86,12.42Z"/><path class="cls-5" d="M291.63,321.68c-.43,1.44-1.18,3.53-2.09,5.86,0,0,0,0,0,0-2.37,6.11-5.8,13.82-7.26,15.52-2,2.35-15,9.8-16,10s-10-5.49-12.17-8.94c-1.94-3.07-4.58-11.55-5.13-13.37h0c0-.15-.07-.25-.08-.3v0c-4.59.6-8.51-3.36-9.25-5.76-.54-1.73.49-7.06,2.88-9.38h0a3.31,3.31,0,0,1,3.38-1c4.73,1.37,6.47,7.86,6.47,7.86s9.05-11.6,12.13-14.55,13.16-10.23,19.52-8.07S293.17,316.47,291.63,321.68Z"/><path class="cls-24" d="M341.54,526.74c-2.16-1.79-16.16-1.43-26.57,2.87-6.41,2.66-17.44,10.81-25,16.68-4.68,3.65-8,6.41-8,6.41s-28-8.13-43.55-11.72S200,525.67,199.23,510.59c-.18-3.75.55-9.13,1.82-15.25,11-6,24-8.48,36.29-9.41,16.21-1.23,32.54,0,48.63,2.06l2.21.29a4.31,4.31,0,0,0,1.5,1.73c6.21,3.6,35,20.4,45.58,27.4S341.54,526.74,341.54,526.74Z"/><path class="cls-7" d="M291.61,540.86,290,546.29c-4.68,3.65-8,6.41-8,6.41s-28-8.13-43.55-11.72S200,525.67,199.23,510.59c-.18-3.75.55-9.13,1.82-15.25,11-6,24-8.48,36.29-9.41,16.21-1.23,32.54,0,48.63,2.06l2.21.29a4.31,4.31,0,0,0,1.5,1.73s-30.95-4.29-49.66,0-25.28,14-20.9,23.26,35.51,19.73,50.55,23.58S291.61,540.86,291.61,540.86Z"/><path class="cls-25" d="M279.05,442.52c-1.46,4,0,15.05,2.46,25.54,1.93,8.32,4.49,16.31,6.66,20.22L286,488c-16.1-2.05-32.44-3.28-48.64-2.05-12.33.93-25.3,3.4-36.29,9.4a310.56,310.56,0,0,1,8.35-30.5c3-9.42,6-17.55,7.77-21.67C222,432,219,417.8,219,417.8l-1-10.17-3.89-38.1s10.55-7.61,15-9.68c3.7-1.7,10.93-5.65,13.32-7l.79-.45s9.08,10.61,16.86,10.78c8.45.46,6.94-8,6.94-8a98.42,98.42,0,0,1,20.64,16.16c10.85,11.12,14.2,24.58,10.85,34.63-2.9,8.68-13.17,23.71-17.79,32.75A34.57,34.57,0,0,0,279.05,442.52Z"/><path class="cls-26" d="M281.51,468.06l-18.78-3.23H209.4c3-9.42,6-17.55,7.77-21.67C222,432,219,417.8,219,417.8l-1-10.17,9.86-24.45s5.84,40.37,14.61,45.17c6.78,3.72,28.73,8.43,38.29,10.37a34.57,34.57,0,0,0-1.71,3.8C277.59,446.55,279.06,457.57,281.51,468.06Z"/><path class="cls-7" d="M369.73,709.19c0,1.15-11.5,2.69-21.27,2.51s-27.12-1.1-28.11-1.63-9.47-22.12-10.56-23.81-4.51-1.66-5.7-.18-5.56,15.44-6.57,19.34-2,5.14-3.36,4.59c-.64-.26-2.8-7.87-3.55-16.35-.69-7.81,4.59-32.39,9.34-35.79a1.75,1.75,0,0,1,1.22-.38h0l.22,0c4.92,1,9.44,14.39,15.16,23.32a154.5,154.5,0,0,0,12.67,16.8l10.28-6.75s13.54,8,18.28,10.69S369.77,708.06,369.73,709.19Z"/><path class="cls-5" d="M340.31,692.41l-12.47,9.26-22.12-27.46-1.87-6.91h0l-.09-.35-.15-.54-2.42-8.91-.57-2.1-.2-.71c-.61-2.21-2.57-9.46-5.05-19.15-3.45-13.54-7.88-31.87-10.91-47.89-4-21.11-2.72-37.09-1.63-44.66,2.91-4.13,8.58-8.14,13.88-10.35,1.56-.65,3.18-1.3,4.8-1.84,5.87-2,11.85-2.66,15.75,1.84l2.5,78.44s.54,8.62,1.4,18.69c.53,6.15,1.17,12.85,1.89,18.45a84.1,84.1,0,0,0,1.82,10.47c2.33,8.27,11.83,26.81,14.65,32.22Z"/><path class="cls-7" d="M436.31,641c-7.27,4-20.43,10.56-21.39,10.58-.53,0-5.43-3.75-10-7.25-3.67-2.83-7.12-5.5-7.79-5.85a3,3,0,0,0-2.86.39,2.92,2.92,0,0,0-1.41,1.87c-.26,1.59,2.37,13.69,3.27,17s.66,4.63-.55,4.79c-.59.07-5.36-4.63-9.47-10.56s-11.34-29.41-7.39-31.06h0a3.66,3.66,0,0,1,.59-.17c4.22-.71,12.83,6.89,20.52,10.92a130.33,130.33,0,0,0,16.38,7.06l4.74-9.27h0l6.89.11c4,.06,8.67.11,11.05.1,4.61,0,11.53-.26,12,.6S443.57,637,436.31,641Z"/><path class="cls-13" d="M422.21,630.22l-5.29,12-27.8-11-8.61-8.66-1.74-1.75h0l-1.29-1.3s-.15-.16-.45-.44c-1.37-1.38-5.86-5.89-11.74-12-8.22-8.53-19.16-20.16-28.12-30.68-11.79-13.86-17.54-26.17-19.91-32.21a16.6,16.6,0,0,1,5.86-11.4c4.52-3.85,11.83-8.17,17.91-6l1,1.64,31,50.45s4,6.12,8.87,13.17c3,4.31,6.25,9,9.13,12.79a67.74,67.74,0,0,0,5.73,7c5.17,5.1,19.94,14.77,24.29,17.58Z"/><path class="cls-5" d="M422.21,630.22l-5.29,12-27.8-11-8.61-8.66-1.15-1.92c-6-10.11-14.17-24.7-24.13-42.64-15.56-28-19.44-37.11-20.17-42.5-.52-3.8,4.16-6.09,7-7.1l31,50.45s4,6.12,8.87,13.17c3,4.31,6.25,9,9.13,12.79a67.74,67.74,0,0,0,5.73,7c5.17,5.1,19.94,14.77,24.29,17.58Z"/><path class="cls-27" d="M316.86,430.91c1.64,12.46-2.13,20.95-7.24,24.91-6.21,4.81-17.25-.3-18.84-6.3s1.46-25.71,2-32.13.24-35.72.24-35.72.28.19-2-.21a16.05,16.05,0,0,1-8.2-4c-1.45-1.31-2.23-4.42-2.64-7.22a48,48,0,0,1-.47-5.38s-.51.57-1.16,1.17-1.73,1.44-2.28,1.33c-1-.21-1.93-5.7-.78-11.31s2.65-9.37,3.89-10.18,6.13.37,7-.3,5.94,3.84,7.46,3.71,5.68,2.89,5.68,2.89,4.35-.64,6.05,1.56,1.79,18.51,2.11,24.45S315.22,418.46,316.86,430.91Z"/><path class="cls-13" d="M301.31,367.23c-.32,1.5-1.36,3.47-2.41,3.74a27.6,27.6,0,0,1-8.87-.51c-1.93-.65-7.24.21-9.84-.19a48,48,0,0,1-.47-5.38s-.51.57-1.16,1.17c0,0,1.52-3.67,2.65-7.1s1.93-7.26,2.38-7.24-.86,6.29-1.48,8.66-1,5.82.62,6.73,3.8-1.34,4.51-3.08,1.26-5.86,1.85-8,2.66-4.92,3.15-4.87-.14,1.89-.89,3.82-3.31,10-2.77,11.63,3.76,1.31,4.8-.7,3.74-7,4.12-7.74,2.05-2.94,2.73-2.86-1.38,2.56-2.61,4.91-2.66,6.56-2.36,7.79,1.36,1.85,2.2,1.43,2.06-.37,2.49-1.15,1.56-1.32.65-1.79-.17-2.82.22-3.05S301.63,365.73,301.31,367.23Z"/><path class="cls-27" d="M226.06,413.41c-1,4.82-1.7,12.91-2.54,20.76s-1.76,15.21-3.23,19.11a5.93,5.93,0,0,1-1.43,2.41A8,8,0,0,1,214,457.5h0c-3.47.13-7-1.78-8-5a42,42,0,0,1-.86-6.05c-1.29-13.29-2.42-43.58-.94-58.58C206,369.46,219,366.35,224,367.8,234.71,371,228.33,402.46,226.06,413.41Z"/><path class="cls-5" d="M273,371.68c-.59,1.32-5.62,8.86-6.82,10.53s-2.87,3.71-4.54,1.8-12.2-5.51-14.6-8.38c-2.2-2.64-4.29-20-4.61-22.75l.79-.44s9.08,10.6,16.87,10.77c8.43.46,6.93-8,6.93-8S273.64,370.37,273,371.68Z"/><path class="cls-27" d="M278.66,455c-.54.22-1.12.42-1.74.61A38.59,38.59,0,0,1,265.56,457c-16.92-.18-46.5.63-51.55.54h-.26c-4-.12-7.44-5.46-7.75-9.59a5.72,5.72,0,0,1,0-.58,19.94,19.94,0,0,1,.89-6.52c2-5,6.82-7.36,14.54-6.82l2.11.18c10.57,1.07,41,5.48,48.68,6.64,1.58.24,3,.49,4.35.77,5.52,1.17,8.6,2.72,8.74,5.33C285.41,449,284.3,452.77,278.66,455Z"/><path class="cls-27" d="M321.3,443.63a1.26,1.26,0,0,1-.91.63,25.26,25.26,0,0,1-5.56-1.43c-1-.33-1.42-.26-1.59,0s.07,1.07.32,1.49c.4.72,2.64,2.6,2.7,4a1,1,0,0,1-.17.6,1.39,1.39,0,0,1-.43.44,5.65,5.65,0,0,1-2,.77l-.6.13a1.11,1.11,0,0,1-.36,0h0a5.55,5.55,0,0,1-1-.26h-.06l0,0-.3-.12-.18-.07-.08,0c-.64-.26-1.33-.57-1.94-.86l-.15-.06-.4-.18-.15-.07-.32-.12-.08,0h0l0,0h0a14.32,14.32,0,0,0-2.31-.66h0s2.54,3.31,2.54,3.92c0,.41-.42.77-1.06,1a4,4,0,0,1-1.13.16c-1.22,0-5-2.24-6.47-3s-5.46,1.12-7.7,3.08-9.25,3.8-14.92,2.85c-.37-.06-.73-.14-1.08-.22-5.82-1.43-9.39-6.53-9.39-6.53s-.66-6.42.21-7.65,3.21.2,7.8.41a14,14,0,0,0,2.09-.08c4.85-.49,12.14-2.93,17.07-4.91,5.71-2.29,10.3-.51,12.8,0a38.27,38.27,0,0,0,6.93.4c1.58.06,6.83,3.32,7.9,4.34A1.69,1.69,0,0,1,321.3,443.63Z"/><path class="cls-13" d="M295.76,628.64c-2.59-18.38-12-71.29-11-77.78.79-5.22,12.33-16.07,16.76-20.07-1.62.54-3.24,1.19-4.8,1.84-5.3,2.21-11,6.22-13.88,10.35-1.09,7.57-2.38,23.55,1.63,44.66,3,16,7.46,34.35,10.91,47.89,2.48,9.69,4.44,16.94,5.05,19.15l.2.71.57,2.1h0a.5.5,0,0,1,0,.12l.24.07,0-.15C299.6,649.93,297.22,639,295.76,628.64Z"/><path class="cls-28" d="M297.38,496.9s-5.83-3.14-6.48-1.57,25.54,17.45,32.22,21.83,10.52,5.36,13,4.05-16.57-11-21.92-14.91S297.38,496.9,297.38,496.9Z"/><path class="cls-8" d="M307.14,452.56a4,4,0,0,1-1.13.16c-1.22,0-5-2.24-6.47-3s-5.46,1.12-7.7,3.08-9.25,3.8-14.92,2.85A38.59,38.59,0,0,1,265.56,457c-16.92-.18-46.5.63-51.55.54h0c-3.47.13-7-1.78-8-5a42,42,0,0,1-.86-6.05,9.37,9.37,0,0,0,.88,1.47c1.78,2.48,5,4.66,10.75,5.12l3.54.25c17.25,1.09,55.55,2.15,55.55,2.15s1.18-.15,2.82-.39c3-.44,7.43-1.2,9-2,2.43-1.26,4.56-5.75,6.29-5.63s6.11,0,8.05,1.78C303.77,450.77,307,451.07,307.14,452.56Z"/><path class="cls-8" d="M311.73,449.94h0l0,0-.3-.12-.18-.07-.08,0c-.64-.26-1.33-.57-1.94-.86Z"/><path class="cls-8" d="M313.7,450.1l-1,.12h0l-4.26-1.69-.32-.12-.08,0h0l0,0h0a14.32,14.32,0,0,0-2.31-.66h0a33.58,33.58,0,0,0-5.12-2.95c-2.31-1-2.55-1.34-2.37-1.52s5.23.88,7.72,2.23S313.7,450.1,313.7,450.1Z"/><path class="cls-8" d="M316.09,448.89a1.39,1.39,0,0,1-.43.44l-.12-.15s-4.15-4.45-5-5.18-4.84-2.56-4.89-2.86,3.49,1.34,4.58,1.91C311.1,443.51,314.66,447.33,316.09,448.89Z"/><path class="cls-8" d="M321.3,443.63a1.26,1.26,0,0,1-.91.63,25.26,25.26,0,0,1-5.56-1.43c-1-.33-1.42-.26-1.59,0l-.94-.68s-5.68-2.3-5.32-2.52,5.53.67,7.39,1.48C316,441.81,320.2,443.26,321.3,443.63Z"/><path class="cls-8" d="M248.83,330.39c-4.59.6-8.51-3.36-9.25-5.76-.54-1.73.49-7.06,2.88-9.38-.1.29-1.93,5.25-1,8.55S248.83,330.39,248.83,330.39Z"/><path class="cls-8" d="M248.92,330.72c0-.15-.07-.25-.08-.3A1.33,1.33,0,0,1,248.92,330.72Z"/><path class="cls-8" d="M291.63,321.68c-.43,1.44-1.18,3.53-2.09,5.86.06-4.39,0-10.18-.79-13.41-1.33-5.66-5.34-13.05-10.93-12s-25.51,20-25.51,20,9.05-11.6,12.13-14.55,13.16-10.23,19.52-8.07S293.17,316.47,291.63,321.68Z"/><path class="cls-29" d="M308.46,313.88c-.56,2.62-3.22,9.76-6.07,17,1.94-7.06,4-14.6,3.9-14.86-.16-.48-4.53,3.73-4.53,1s-2.43-10.69-2.43-10.69,1,1.46,4.21,2.92,1.46-2.92,1.46-2.92L297.38,296l-32.57-9.92-2.76-1.95,2.76-6.16s-10.85-7.45-17-7.13c-4.89.26-16.78,9.1-21.48,12.73,2.55-5.2,12.6-13.51,15.83-14.91,3.77-1.64,16.25.54,20.56,4.39s7.63,11.41,7.63,11.41,28,9.94,29.64,12C300,296.43,309.76,307.81,308.46,313.88Z"/><rect class="cls-11" x="268.56" y="458.61" width="81.85" height="3.44"/><polygon class="cls-11" points="372.24 388.19 346.81 458.61 350.42 462.05 375.73 389.28 372.24 388.19"/><rect class="cls-20" x="221.97" y="463.37" width="531.03" height="11.98"/><path class="cls-23" d="M620.94,374.82H751.21a0,0,0,0,1,0,0v74A9.25,9.25,0,0,1,742,458H630.19a9.25,9.25,0,0,1-9.25-9.25v-74A0,0,0,0,1,620.94,374.82Z" transform="translate(1372.15 832.86) rotate(180)"/><rect class="cls-1" x="624.8" y="379.53" width="122.9" height="73.8"/><rect class="cls-1" x="625.82" y="380.55" width="120.86" height="71.76"/><polygon class="cls-16" points="620.94 458.04 765.15 458.04 757.76 465.01 626.88 465.01 620.94 458.04"/><rect class="cls-30" x="250.78" y="469.36" width="531.03" height="6"/><path class="cls-7" d="M652,585.38s-19.58,13.9-27.76,16.57-25.59,0-32.45-10.6c-4.62-7.14-12.78-20-14.86-29.58-1-4.65-.61-8.52,2.35-10.56,9-6.23,17.69,2.92,23.71,8.73s18.16,10.43,23.45,8.75c1.16-.38,2.4-.8,3.62-1.24,4.33-1.56,8.48-3.29,8.48-3.29Z"/><path class="cls-7" d="M652,585.38s-19.58,13.9-27.76,16.57-25.59,0-32.45-10.6c-4.62-7.14-12.78-20-14.86-29.58,4.47,8.28,15.71,27.52,25.73,31.93,12.86,5.67,35.62-4.11,35.76-5.51.12-1.06-6.48-13.16-8.36-20.74,4.33-1.56,8.48-3.29,8.48-3.29Z"/><path class="cls-7" d="M706.51,679.38c.06,9.52-5.58,30.88-9,39.89s-17.48,16-28.68,17.79c-9.75,1.56-28.42-2.45-32.18-10a5.9,5.9,0,0,1-.63-3.58c1.36-9.78,13.87-10.57,22.51-13.09s8.69-4.5,11.31-8.62c1.66-2.62,5-12.74,7.27-19.72,1.27-4,2.16-6.91,2.16-6.91S706.45,669.87,706.51,679.38Z"/><path class="cls-7" d="M706.51,679.38c.06,9.52-5.58,30.88-9,39.89s-17.48,16-28.68,17.79c-9.75,1.56-28.42-2.45-32.18-10,.73.23,1.46.44,2.12.67,3.66,1.27,7.9-5,9-3.82s-3,1.58-1.9,4.86,20,4.64,28.4-1.13,23-34.88,20.23-38.87c-2.11-3-12.4-5.6-17.41-6.72,1.27-4,2.16-6.91,2.16-6.91S706.45,669.87,706.51,679.38Z"/><path class="cls-31" d="M815.43,466.24l-.65,10.2-2.67,42.07s-68.23,16.89-74.56,19.09-75.94,53.64-81.24,55c-1.87.5-5.38-2.3-9.08-6.39-6.81-7.51-14.31-19.41-13.63-23.41,1-6.17,63.45-61.11,68-66.24S815.43,466.24,815.43,466.24Z"/><path class="cls-32" d="M814.78,476.44l-2.67,42.07s-68.23,16.89-74.56,19.09-75.94,53.64-81.24,55c-1.87.5-5.38-2.3-9.08-6.39,14-16.32,45.82-62.28,65.46-79.8,21.84-19.48,89.76-34.1,99.83-41.68C815.09,462.84,812.46,474.92,814.78,476.44Z"/><path class="cls-31" d="M907.72,528.59c-3,9.52-6.94,20.9-11.45,23.34s-55.73,10-88,5.58-50.72-7.21-56.93-3.22-20.77,51.94-24.44,67.61-14.28,58-15.31,58.78c-.7.54-13.26.64-23.13-.83-4.53-.68-8.5-1.69-10.51-3.14-6.4-4.63,13.37-129,19.77-147s91-31.62,91-31.62l26.08-.39,86.24-1.28S910.71,519.06,907.72,528.59Z"/><path class="cls-32" d="M907.72,528.59c-3,9.52-6.94,20.9-11.45,23.34s-55.73,10-88,5.58-50.72-7.21-56.93-3.22-20.77,51.94-24.44,67.61-14.28,58-15.31,58.78c-.7.54-13.26.64-23.13-.83,5.59-.74,11-2,13.12-4,5-4.83,10.76-27.53,16.89-62.18s3.41-70.59,13.34-72.74,85.7,6.28,105,1.35,25-25.08,16.83-32.55-53.34-9.45-53.34-9.45l14.44-2.62,86.24-1.28S910.71,519.06,907.72,528.59Z"/><path class="cls-33" d="M902.68,359.63c.17,2.66.36,9.92.57,19.08.19,8.34.39,18.26.59,27.69.32,15.14.63,29,.89,33.16.61,9.53-1.05,52.27-2.51,55.1s-44.18,10.17-70.53,8.28-31.32-2.65-31.32-2.65,7.89-27.86,5.66-55c-.21-2.45-.49-4.89-.87-7.31-.46-2.93-.95-5.88-1.47-8.82-4.63-26.35-11.1-51.6-11.1-51.6h0c.11-.34,3.77-11.53,11.95-18.24s36.19-19.78,36.19-19.78,8.42,3.56,20.65,2.52a131.69,131.69,0,0,0,20.27-3.19h0S902.11,350.64,902.68,359.63Z"/><path class="cls-5" d="M880.42,304.76c-2,7.82-8.71,22.64-8.71,22.64l3,12.89a39.24,39.24,0,0,1-12.58,4.07c-7.45,1.13-18.63-3.93-18.63-3.93l2.77-16.66c-3.88,3.31-13.18,4.55-13.26,3.24s-3-5.59-3.76-14.59,1.62-14.82,2.51-19c.57-2.74,1.28-8.05,1.83-12.85.29-2.47.53-4.82.69-6.61.49-5.27,2.5-7,5.82-8.88.43-.23.9-.52,1.43-.81,3.55-2,9.45-4.71,19.33.64C872.23,271.09,882.38,297,880.42,304.76Z"/><path class="cls-13" d="M851.24,273.42s-2.15,13.81-2.34,9-4-11-7.65-11.51-7.64,9.67-7.64,9.67c.29-2.47.53-4.82.69-6.61.49-5.27,2.5-7,5.82-8.88.43-.23.9-.52,1.43-.81Z"/><path class="cls-10" d="M901.1,277.45a96.05,96.05,0,0,1-4.61,15c-5.14,13.22-12.23,25.55-13.66,27.18-2,2.25-11.12,7.74-11.12,7.74s-6.26-3.29-8.71-7.06a25,25,0,0,1-3.24-7.24s7.74-8.18,5.28-13.42-8.79-2.87-10.53.51a34.07,34.07,0,0,0-2.18,5.63c-.34,1.14-.51,1.9-.51,1.9a13.15,13.15,0,0,1-3.17-8.63c0-5.4,1.26-18.57-.18-23.39s-4.85-10.31-11.54-8.34c0,0-2.57,2-2.79,8.36-.47,4.3-.67,6.1-.67,6.1a18.64,18.64,0,0,1-4.18-2.45,14.92,14.92,0,0,1-5.93-15.43c2.56-13,17.18-14.5,17.18-14.5s6-13.58,19.18-14.08,15.4,6.43,18.1,7.73S904.58,260.21,901.1,277.45Z"/><path class="cls-11" d="M896.49,292.48c-5.14,13.22-12.23,25.55-13.66,27.18-2,2.25-11.12,7.74-11.12,7.74s-6.26-3.29-8.71-7.06a25,25,0,0,1-3.24-7.24s7.74-8.18,5.28-13.42-8.79-2.87-10.53.51a34.07,34.07,0,0,0-2.18,5.63c.48-4.67,2.12-11.66,7.67-11.66,8.33,0,15.7,9,23.83,8.9C887.86,303,892.67,297.77,896.49,292.48Z"/><path class="cls-13" d="M846.29,323.77s8.29-5.92,9.59-7,2.77-2.63,2.77-2.63a74.55,74.55,0,0,1-4.71,9.9c-2.76,4.7-8.73,9.4-8.73,9.4Z"/><path class="cls-34" d="M831.93,277.9c-1.06,0-3.1,1.42-5.09,11.28s-.93,12.41-.58,12.72,2.65.56,3-.48.18-6.22,1-11.68a24.14,24.14,0,0,1,3.38-9.15l.31-2.82Z"/><path class="cls-34" d="M829.71,287.2s24,1.86,24.54,2.21,4.57,7.45,4.57,7.45l-2.53,1.27-4.14-5.81L829,291.17Z"/><path class="cls-33" d="M821,409.35c-1.53,7.07-8.22,22-15,35.91-6.54,13.54-13.13,26.18-15.11,29.94-4,7.63-6,14.93-20.22,10.91-8-2.27-22.91-13.25-34.36-22.38-8.84-7-15.63-13-15.63-13l13.38-19.63s32.33,14.35,36.57,16.54c0,0,10.41-36.32,13.87-46.38s8.06-23.74,8.06-23.74h0c.12-.13,3.6-3.62,15.95.63a19.7,19.7,0,0,1,6.2,3.41C822,387.5,823.41,398.1,821,409.35Z"/><path class="cls-35" d="M734.09,431.11a31.61,31.61,0,0,1-.62,5.14c-.46,1.58-2.67,7.93-5.93,11h0A14.7,14.7,0,0,1,725.2,449a13.1,13.1,0,0,1-4.49,1.76l2.36-3.46,2.86-4.2,5.23-7.68Z"/><path class="cls-5" d="M733.06,437a21.7,21.7,0,0,1-1.18,3.42,23.58,23.58,0,0,1-4.34,6.8h0A14.12,14.12,0,0,1,725.2,449l-2.13-1.7c-3.23-2.57-8.7-7-9.31-7.64-.88-1-9-.45-11.43-.91s-7.36-4.45-8.61-4.78-7.82.34-11,1.31c-2.06.63-3.11.09-3-.81a2.54,2.54,0,0,1,1.13-1.58,11.76,11.76,0,0,1,6.25-2.45c2.29-.24,7-.7,7.36-1.08s-7.47-1.52-9.72-1.38-6.76,1.66-7.32,1a.31.31,0,0,1-.06-.13c-.23-.77,1.9-2.46,4.27-3.11s7.28-1.37,9.45-1.1a6,6,0,0,0,1.76,0h0a.54.54,0,0,0,.33-.13c.18-.21-.73-.58-3.91-1-5.45-.7-9.85,0-10.67-.5a.24.24,0,0,1-.13-.15c-.26-.8,3.64-2.38,6.37-3a19.71,19.71,0,0,1,8.13.5c.45.13.61.12.52,0h0a17.44,17.44,0,0,0-5.86-1.74c-4.16-.62-6.68-2-6.85-3.11a.23.23,0,0,1,0-.14c0-1.13,6.82-.64,10-.63a34.75,34.75,0,0,1,7.52.65c1.66.41,9.78,4.09,11.72,4s3-.91,4.32-3.14,1.15-4.38,3-7.47,4.36-5.61,5.24-4.64,0,9.64-.24,12.31a56.21,56.21,0,0,0,.74,10.14c.27,1.86,5.27,6.39,8.09,8.81C732.28,436.37,733.06,437,733.06,437Z"/><path class="cls-36" d="M848.47,275.7c-1.44-4.81-4.85-10.31-11.54-8.34,0,0-2.57,2-2.79,8.36-.47,4.3-.67,6.1-.67,6.1a18.64,18.64,0,0,1-4.18-2.45,13.49,13.49,0,0,1-.73-10.31c2.77-8.16,11.56-3.95,11.56-3.95S846.7,266.19,848.47,275.7Z"/><path class="cls-35" d="M903.25,378.71c.19,8.34.39,18.26.59,27.69.32,15.14.63,29,.89,33.16.61,9.53-1.05,52.27-2.51,55.1s-44.18,10.17-70.53,8.28-31.32-2.65-31.32-2.65,7.89-27.86,5.66-55c-6.54,13.53-13.13,26.17-15.11,29.94-4,7.63-6,14.93-20.22,10.91-8-2.27-22.91-13.25-34.36-22.39,12.43,8,27,16.63,32.55,17.13,10.39.93,16.63-8,27.57-31.37a147.18,147.18,0,0,0,7.23-20.35c4.67-16.06,8.65-35.07,11.06-47.57,1.57-8.13,2.48-13.5,2.48-13.5s-.33,15.58,3.85,14.8c3.34-.62,48.2-3.5,73.7-4.06C897.94,378.73,900.8,378.7,903.25,378.71Z"/><path class="cls-13" d="M858.5,301.7s3.43-2.11,3.75.21-2.64,7.62-4.92,8.63S858.5,301.7,858.5,301.7Z"/><path class="cls-13" d="M731.88,440.42a23.58,23.58,0,0,1-4.34,6.8h0A14.12,14.12,0,0,1,725.2,449l-2.13-1.7c-3.23-2.57-8.7-7-9.31-7.64-.88-1-9-.45-11.43-.91s-7.36-4.45-8.61-4.78-7.82.34-11,1.31c-2.06.63-3.11.09-3-.81a6.39,6.39,0,0,0,3.25-.11c2.46-.76,10.94-2.69,11.66-2.21s8.64,4.83,11.53,5.26,7.28-1.59,8.3-.53a115.05,115.05,0,0,0,10.88,7.3C726.23,444.64,729.31,442.46,731.88,440.42Z"/><path class="cls-13" d="M694.45,429.35c.39-.38-7.47-1.52-9.72-1.38s-6.76,1.66-7.32,1a.31.31,0,0,1-.06-.13,35.74,35.74,0,0,1,7.11-1.7,52.62,52.62,0,0,1,9.37.79C695.82,428.24,694.45,429.35,694.45,429.35Z"/><path class="cls-13" d="M693.17,424.47c.18-.21-.73-.58-3.91-1-5.45-.7-9.85,0-10.67-.5a28.29,28.29,0,0,1,4.82-.72c3.15-.2,8.11,0,10,.75C694.8,423.61,693.77,424.21,693.17,424.47Z"/><path class="cls-13" d="M695.56,420.27c0,.42-1.94.15-2.08.13h0a17.44,17.44,0,0,0-5.86-1.74c-4.16-.62-6.68-2-6.85-3.11a22,22,0,0,0,4,1.72c2.61.83,5.53,1,7.38,1.52S695.54,419.84,695.56,420.27Z"/><path class="cls-35" d="M740.27,434.67s-2,10.5-3.17,12.08-11,7.87-11,7.87,9.37-4.53,11.52-7.15S740.35,436,740.27,434.67Z"/><rect class="cls-1" x="832.34" y="547.02" width="18.14" height="43.28"/><polygon class="cls-1" points="832.34 547.02 832.34 590.3 799.16 590.3 799.16 575.19 824.06 575.19 824.06 547.02 832.34 547.02"/><polygon class="cls-1" points="832.34 590.3 832.34 668.91 826.99 668.91 828.88 663.02 828.88 637.96 811.81 637.96 811.81 663.74 811.61 664.32 811.61 590.3 832.34 590.3"/><path class="cls-1" d="M897.55,735.64a17.91,17.91,0,1,1-7.75-34v8.93a17.91,17.91,0,0,0,7.75,25.12Z"/><path class="cls-1" d="M923.19,719.49a17.9,17.9,0,1,1-25.64-16.14,17.45,17.45,0,0,1,4.8-1.51,16.83,16.83,0,0,1,2.94-.25A17.9,17.9,0,0,1,923.19,719.49Z"/><path class="cls-1" d="M902.35,689.91v11.93a17.45,17.45,0,0,0-4.8,1.51,18,18,0,0,0-7.75,7.17V692.46l-57.46-29.28V638s58.23,40.5,64.6,44.16S902.35,689.91,902.35,689.91Z"/><path class="cls-1" d="M746.4,732.46a17.91,17.91,0,1,1-4.8-33.8v4.88a17.91,17.91,0,0,0,4.8,28.92Z"/><path class="cls-1" d="M811.61,638v25.22l-57.47,29.28v5.95a17.76,17.76,0,0,0-7.74,1.76,18,18,0,0,0-4.8,3.37V689.91s-1-4.14,5.41-7.79S811.61,638,811.61,638Z"/><path class="cls-1" d="M772,716.32a17.9,17.9,0,1,1-17.9-17.91A17.89,17.89,0,0,1,772,716.32Z"/><path class="cls-1" d="M823,638V663l-1.88,5.89-9.92,31-1.86-.08c-3.77.53-7,8.75-7.17,18.44H793L798.59,702l13-37.66.2-.58V638Z"/><polygon class="cls-1" points="828.88 637.96 828.88 663.02 826.99 668.91 817.01 700.17 811.23 699.93 821.15 668.91 823.03 663.02 823.03 637.96 828.88 637.96"/><path class="cls-1" d="M824.36,736.24l.24,0-16.22-.66c-3.59-.15-6.31-7.48-6.19-16.91,0-.13,0-.26,0-.4.22-9.69,3.4-17.91,7.17-18.44l1.86.08,5.78.24,8.64.35c-3.82.54-7,9-7.17,18.84,0,.51,0,1,0,1.51,0,.15,0,.29,0,.43,0,.58,0,1.14.08,1.7,0,.26,0,.51.06.76,0,.08,0,.16,0,.24s0,.3.05.45.06.59.1.87.06.47.1.7,0,.24.05.36c.08.51.17,1,.27,1.49,0,.2.09.4.14.6l0,.15.06.26c0,.14.07.29.11.43l.18.66c.06.21.13.42.2.63s.09.29.15.44.18.5.27.74l.22.52c0,.11.1.23.16.34s.15.32.23.47a.22.22,0,0,0,0,.08l.15.28.12.21.13.21a2.14,2.14,0,0,0,.13.19,7.16,7.16,0,0,0,.92,1.13l.16.15a4.2,4.2,0,0,0,.85.59l.32.14.06,0a1.12,1.12,0,0,0,.26.08Z"/><path class="cls-1" d="M832.33,717.39c-.13,9.87-3.35,18.31-7.17,18.85a2.65,2.65,0,0,1-.56,0l-.24,0-.24,0-.26-.08-.06,0-.32-.14a4.2,4.2,0,0,1-.85-.59l-.16-.15a7.16,7.16,0,0,1-.92-1.13,2.14,2.14,0,0,1-.13-.19l-.13-.21-.12-.21-.15-.28a.22.22,0,0,1,0-.08c-.08-.15-.16-.31-.23-.47s-.11-.23-.16-.34l-.22-.52c-.09-.24-.19-.49-.27-.74s-.1-.29-.15-.44-.14-.42-.2-.63l-.18-.66c0-.14-.08-.29-.11-.43l-.06-.26,0-.15c-.05-.2-.09-.4-.14-.6-.1-.48-.19-1-.27-1.49,0-.12,0-.24-.05-.36s-.07-.46-.1-.7-.07-.57-.1-.87,0-.3-.05-.45,0-.16,0-.24c0-.25,0-.5-.06-.76,0-.56-.07-1.12-.08-1.7,0-.14,0-.28,0-.43,0-.49,0-1,0-1.51.14-9.86,3.35-18.3,7.17-18.84S832.47,707.53,832.33,717.39Z"/><path class="cls-1" d="M794.51,736.27l-16.28-.67c-3.58-.15-6.31-7.48-6.18-16.91.14-9.86,3.35-18.3,7.17-18.84l16.29.67c-3.83.54-7,9-7.17,18.84C788.2,728.79,790.93,736.12,794.51,736.27Z"/><path class="cls-1" d="M802.16,718.29c-.31,9.48-3.44,17.43-7.15,18a2.56,2.56,0,0,1-.55,0h-.17a.9.9,0,0,1-.16,0l-.16,0-.26-.08-.06,0-.32-.14-.24-.14a1.82,1.82,0,0,1-.23-.15l0,0s0,0,0,0a.58.58,0,0,1-.15-.11l-.15-.13a2.44,2.44,0,0,1-.29-.27l-.27-.31-.14-.16a2.35,2.35,0,0,1-.19-.25l-.21-.3a2.14,2.14,0,0,0-.13-.19l-.12-.21-.13-.21a10.62,10.62,0,0,1-.58-1.17c-.08-.17-.15-.35-.22-.52s-.15-.37-.22-.56h0c0-.14-.1-.3-.16-.45-.1-.31-.2-.63-.29-1,0-.11-.07-.23-.1-.35s-.12-.44-.17-.67,0-.2-.07-.31-.11-.47-.16-.71-.07-.39-.11-.59-.09-.52-.14-.79,0-.24,0-.36,0-.33-.07-.5v0c0-.16,0-.31-.07-.48v0c0-.16,0-.31-.05-.48l-.06-.58h0c0-.17,0-.36,0-.54-.06-.66-.09-1.34-.11-2,0-.14,0-.28,0-.42,0-.49,0-1,0-1.51.13-9.86,3.34-18.3,7.17-18.84a3.43,3.43,0,0,1,3.08,1.46L793,718.29Z"/><path class="cls-18" d="M888.19,578.21c-6.16,3.18-44.93,4.53-44.93,4.53s-30,.21-57.38-1c-17.78-.76-34.47-2.13-41.17-4.5-17-6-12-30.23-4-36.68s21-.87,54.17,2.63,85.68-1.27,90.76-2.31a16.3,16.3,0,0,1,8.31.49c3.81,1.34,7.36,4.57,8.42,11.37C904.24,564.84,894.34,575,888.19,578.21Z"/><path class="cls-17" d="M894,541.38c-5.51,3.71-16.31,8.86-33.94,9-27.69.25-60.65-1.21-70.88-3.37s-22.24,11.41-16.45,25.31c1.95,4.69,6.42,7.59,13.19,9.42-17.78-.76-34.47-2.13-41.17-4.5-17-6-12-30.23-4-36.68s21-.87,54.17,2.63,85.68-1.27,90.76-2.31A16.3,16.3,0,0,1,894,541.38Z"/><path class="cls-17" d="M899.33,464.43h-90.2c-7.12,0-12.06-5.77-11-12.89l7.85-54.3a15.42,15.42,0,0,1,14.76-12.9h90.2c7.13,0,12.07,5.77,11,12.9l-7.85,54.3A15.42,15.42,0,0,1,899.33,464.43Z"/><path class="cls-18" d="M899.33,464.43H821.54c-7.13,0-12.07-5.77-11-12.89l7.85-54.3a15.42,15.42,0,0,1,14.76-12.9h77.8c7.13,0,12.07,5.77,11,12.9l-7.85,54.3A15.42,15.42,0,0,1,899.33,464.43Z"/><polygon class="cls-17" points="852.07 408.59 853.24 442.31 844.73 464.43 853.24 464.43 861.3 442.31 861.3 408.59 852.07 408.59"/><rect class="cls-16" x="869.57" y="408.59" width="18.14" height="33.73"/><rect class="cls-15" x="861.3" y="408.59" width="8.27" height="33.73"/><polygon class="cls-16" points="887.71 442.31 850.48 547.02 832.34 547.02 869.57 442.31 887.71 442.31"/><polygon class="cls-15" points="869.57 442.31 832.34 547.02 824.06 547.02 861.3 442.31 869.57 442.31"/><rect class="cls-16" x="832.34" y="547.02" width="18.14" height="43.28"/><polygon class="cls-15" points="832.34 547.02 832.34 590.3 799.16 590.3 799.16 575.19 824.06 575.19 824.06 547.02 832.34 547.02"/><polygon class="cls-15" points="832.34 590.3 832.34 668.91 826.99 668.91 828.88 663.02 828.88 637.96 811.81 637.96 811.81 663.74 811.61 664.32 811.61 590.3 832.34 590.3"/><path class="cls-15" d="M897.55,735.64a17.91,17.91,0,1,1-7.75-34v8.93a17.91,17.91,0,0,0,7.75,25.12Z"/><path class="cls-16" d="M923.19,719.49a17.9,17.9,0,1,1-25.64-16.14,17.45,17.45,0,0,1,4.8-1.51,16.83,16.83,0,0,1,2.94-.25A17.9,17.9,0,0,1,923.19,719.49Z"/><path class="cls-15" d="M902.35,689.91v11.93a17.45,17.45,0,0,0-4.8,1.51,18,18,0,0,0-7.75,7.17V692.46l-57.46-29.28V638s58.23,40.5,64.6,44.16S902.35,689.91,902.35,689.91Z"/><path class="cls-15" d="M746.4,732.46a17.91,17.91,0,1,1-4.8-33.8v4.88a17.91,17.91,0,0,0,4.8,28.92Z"/><path class="cls-15" d="M811.61,638v25.22l-57.47,29.28v5.95a17.76,17.76,0,0,0-7.74,1.76,18,18,0,0,0-4.8,3.37V689.91s-1-4.14,5.41-7.79S811.61,638,811.61,638Z"/><path class="cls-16" d="M772,716.32a17.9,17.9,0,1,1-17.9-17.91A17.89,17.89,0,0,1,772,716.32Z"/><path class="cls-16" d="M823,638V663l-1.88,5.89-9.92,31-1.86-.08c-3.77.53-7,8.75-7.17,18.44H793L798.59,702l13-37.66.2-.58V638Z"/><polygon class="cls-15" points="828.88 637.96 828.88 663.02 826.99 668.91 817.01 700.17 811.23 699.93 821.15 668.91 823.03 663.02 823.03 637.96 828.88 637.96"/><path class="cls-16" d="M824.36,736.24l.24,0-16.22-.66c-3.59-.15-6.31-7.48-6.19-16.91,0-.13,0-.26,0-.4.22-9.69,3.4-17.91,7.17-18.44l1.86.08,5.78.24,8.64.35c-3.82.54-7,9-7.17,18.84,0,.51,0,1,0,1.51,0,.15,0,.29,0,.43,0,.58,0,1.14.08,1.7,0,.26,0,.51.06.76,0,.08,0,.16,0,.24s0,.3.05.45.06.59.1.87.06.47.1.7,0,.24.05.36c.08.51.17,1,.27,1.49,0,.2.09.4.14.6l0,.15.06.26c0,.14.07.29.11.43l.18.66c.06.21.13.42.2.63s.09.29.15.44.18.5.27.74l.22.52c0,.11.1.23.16.34s.15.32.23.47a.22.22,0,0,0,0,.08l.15.28.12.21.13.21a2.14,2.14,0,0,0,.13.19,7.16,7.16,0,0,0,.92,1.13l.16.15a4.2,4.2,0,0,0,.85.59l.32.14.06,0a1.12,1.12,0,0,0,.26.08Z"/><path class="cls-15" d="M832.33,717.39c-.13,9.87-3.35,18.31-7.17,18.85a2.65,2.65,0,0,1-.56,0l-.24,0-.24,0-.26-.08-.06,0-.32-.14a4.2,4.2,0,0,1-.85-.59l-.16-.15a7.16,7.16,0,0,1-.92-1.13,2.14,2.14,0,0,1-.13-.19l-.13-.21-.12-.21-.15-.28a.22.22,0,0,1,0-.08c-.08-.15-.16-.31-.23-.47s-.11-.23-.16-.34l-.22-.52c-.09-.24-.19-.49-.27-.74s-.1-.29-.15-.44-.14-.42-.2-.63l-.18-.66c0-.14-.08-.29-.11-.43l-.06-.26,0-.15c-.05-.2-.09-.4-.14-.6-.1-.48-.19-1-.27-1.49,0-.12,0-.24-.05-.36s-.07-.46-.1-.7-.07-.57-.1-.87,0-.3-.05-.45,0-.16,0-.24c0-.25,0-.5-.06-.76,0-.56-.07-1.12-.08-1.7,0-.14,0-.28,0-.43,0-.49,0-1,0-1.51.14-9.86,3.35-18.3,7.17-18.84S832.47,707.53,832.33,717.39Z"/><path class="cls-16" d="M794.51,736.27l-16.28-.67c-3.58-.15-6.31-7.48-6.18-16.91.14-9.86,3.35-18.3,7.17-18.84l16.29.67c-3.83.54-7,9-7.17,18.84C788.2,728.79,790.93,736.12,794.51,736.27Z"/><path class="cls-15" d="M802.16,718.29c-.31,9.48-3.44,17.43-7.15,18a2.56,2.56,0,0,1-.55,0h-.17a.9.9,0,0,1-.16,0l-.16,0-.26-.08-.06,0-.32-.14-.24-.14a1.82,1.82,0,0,1-.23-.15l0,0s0,0,0,0a.58.58,0,0,1-.15-.11l-.15-.13a2.44,2.44,0,0,1-.29-.27l-.27-.31-.14-.16a2.35,2.35,0,0,1-.19-.25l-.21-.3a2.14,2.14,0,0,0-.13-.19l-.12-.21-.13-.21a10.62,10.62,0,0,1-.58-1.17c-.08-.17-.15-.35-.22-.52s-.15-.37-.22-.56h0c0-.14-.1-.3-.16-.45-.1-.31-.2-.63-.29-1,0-.11-.07-.23-.1-.35s-.12-.44-.17-.67,0-.2-.07-.31-.11-.47-.16-.71-.07-.39-.11-.59-.09-.52-.14-.79,0-.24,0-.36,0-.33-.07-.5v0c0-.16,0-.31-.07-.48v0c0-.16,0-.31-.05-.48l-.06-.58h0c0-.17,0-.36,0-.54-.06-.66-.09-1.34-.11-2,0-.14,0-.28,0-.42,0-.49,0-1,0-1.51.13-9.86,3.34-18.3,7.17-18.84a3.43,3.43,0,0,1,3.08,1.46L793,718.29Z"/><path class="cls-2" d="M702.59,329H698a11,11,0,0,1-10.91-9.51A10.27,10.27,0,0,1,687,318V306.12h26.63V318a10.77,10.77,0,0,1-.11,1.52A11,11,0,0,1,702.59,329Zm-13.24-20.55V318a7.33,7.33,0,0,0,.08,1.17,8.67,8.67,0,0,0,8.57,7.48h4.59a8.67,8.67,0,0,0,8.57-7.47,9,9,0,0,0,.08-1.18v-9.54Z"/><path class="cls-2" d="M700.3,234.28a31.32,31.32,0,0,0-30.35,39,30.51,30.51,0,0,0,2.13,5.89l0,.09c.27.53.55,1.08.86,1.62l14.47,27.64h25.69l14.47-27.64c.31-.54.6-1.09.85-1.63l0-.08a30.54,30.54,0,0,0,2.14-5.89,31.32,31.32,0,0,0-30.34-39Zm28,38.39a28.12,28.12,0,0,1-1.94,5.38l0,.08c-.25.52-.52,1.05-.82,1.57l-13.83,26.42H688.88l-13.82-26.38v0c-.3-.52-.58-1.05-.82-1.57l-.05-.08a28.33,28.33,0,0,1-1.93-5.38,28.64,28.64,0,0,1-.89-7.09,28.93,28.93,0,1,1,57.86,0A28.63,28.63,0,0,1,728.34,272.67Z"/><path class="cls-2" d="M705.76,307.31c0-4.05.1-11.5,1-15.95,1-4.77,4.58-11.89,7-16.59.75-1.48,1.4-2.75,1.77-3.57.62-1.18,2-4.51,1.15-5.92a1.67,1.67,0,0,0-1.57-.68c-.9,0-1.5,1.87-2,3.52-.66,2-1.33,4.14-2.89,4.14s-2.24-2.11-2.89-4.14c-.53-1.65-1.14-3.52-2-3.52s-1.51,1.87-2,3.52c-.65,2-1.33,4.14-2.89,4.14s-2.23-2.11-2.89-4.14c-.53-1.65-1.13-3.52-2-3.52s-1.51,1.87-2,3.52c-.66,2-1.33,4.14-2.89,4.14s-2.23-2.11-2.88-4.14c-.54-1.65-1.14-3.52-2-3.52h-.16a1.55,1.55,0,0,0-1.4.68c-.86,1.41.53,4.74,1.14,5.9.38.84,1,2.12,1.78,3.59,2.4,4.71,6,11.82,7,16.58.9,4.46,1,11.91,1,16h-.89c0-4-.1-11.4-1-15.78-.93-4.65-4.52-11.7-6.89-16.36-.76-1.48-1.41-2.76-1.79-3.6-.24-.45-2.37-4.66-1.1-6.75a2.5,2.5,0,0,1,2.33-1.11l.63.18.43.22c.85.71,1.34,2.24,1.82,3.74s1.13,3.52,2,3.52,1.51-1.87,2-3.52c.66-2,1.34-4.14,2.89-4.14s2.23,2.1,2.89,4.14c.53,1.65,1.13,3.52,2,3.52s1.52-1.87,2.05-3.52c.65-2,1.33-4.14,2.88-4.14s2.24,2.1,2.89,4.14c.53,1.65,1.14,3.52,2,3.52s1.51-1.87,2-3.52c.66-2,1.33-4.13,2.88-4.14a2.52,2.52,0,0,1,2.33,1.11c1.26,2.09-.87,6.3-1.11,6.77-.37.82-1,2.1-1.78,3.58-2.38,4.66-6,11.72-6.9,16.36-.87,4.38-1,11.76-1,15.78Z"/><path class="cls-2" d="M712.87,315.86H687.72v-3.57h25.15ZM688.61,315H712v-1.79H688.61Z"/><path class="cls-2" d="M712.71,319.82H687.88l-.06-.38a9.18,9.18,0,0,1-.1-1.41v-.89h25.15V318a10.63,10.63,0,0,1-.1,1.41Zm-24.06-.89h23.29a8.77,8.77,0,0,0,0-.9H688.61A8.77,8.77,0,0,0,688.65,318.93Z"/><path class="cls-20" d="M627.44,110.7H795.52a17.92,17.92,0,0,1,17.92,17.92v53a17.92,17.92,0,0,1-17.92,17.92h-31.7c.61,4.21,2.77,17.82,6,22.9,0,0-17.84-8-27.85-22.9H627.44a17.92,17.92,0,0,1-17.93-17.92v-53A17.92,17.92,0,0,1,627.44,110.7Z"/><rect class="cls-1" x="627.88" y="137.59" width="165.73" height="6.97" transform="translate(1421.49 282.14) rotate(180)"/><rect class="cls-1" x="627.88" y="151.65" width="165.73" height="6.97" transform="translate(1421.49 310.27) rotate(180)"/><rect class="cls-1" x="703.23" y="165.71" width="90.37" height="6.97" transform="translate(1496.84 338.39) rotate(180)"/></g></g></svg>